%TF.GenerationSoftware,KiCad,Pcbnew,9.0.4*%
%TF.CreationDate,2025-08-21T19:51:14+03:00*%
%TF.ProjectId,homepost,686f6d65-706f-4737-942e-6b696361645f,rev?*%
%TF.SameCoordinates,Original*%
%TF.FileFunction,Legend,Top*%
%TF.FilePolarity,Positive*%
%FSLAX46Y46*%
G04 Gerber Fmt 4.6, Leading zero omitted, Abs format (unit mm)*
G04 Created by KiCad (PCBNEW 9.0.4) date 2025-08-21 19:51:14*
%MOMM*%
%LPD*%
G01*
G04 APERTURE LIST*
%ADD10C,0.200000*%
%ADD11C,0.150000*%
%ADD12C,0.120000*%
G04 APERTURE END LIST*
D10*
X92207780Y-104509673D02*
X93207780Y-104509673D01*
X92731590Y-104509673D02*
X92731590Y-105081101D01*
X92207780Y-105081101D02*
X93207780Y-105081101D01*
X92207780Y-105700149D02*
X92255400Y-105604911D01*
X92255400Y-105604911D02*
X92303019Y-105557292D01*
X92303019Y-105557292D02*
X92398257Y-105509673D01*
X92398257Y-105509673D02*
X92683971Y-105509673D01*
X92683971Y-105509673D02*
X92779209Y-105557292D01*
X92779209Y-105557292D02*
X92826828Y-105604911D01*
X92826828Y-105604911D02*
X92874447Y-105700149D01*
X92874447Y-105700149D02*
X92874447Y-105843006D01*
X92874447Y-105843006D02*
X92826828Y-105938244D01*
X92826828Y-105938244D02*
X92779209Y-105985863D01*
X92779209Y-105985863D02*
X92683971Y-106033482D01*
X92683971Y-106033482D02*
X92398257Y-106033482D01*
X92398257Y-106033482D02*
X92303019Y-105985863D01*
X92303019Y-105985863D02*
X92255400Y-105938244D01*
X92255400Y-105938244D02*
X92207780Y-105843006D01*
X92207780Y-105843006D02*
X92207780Y-105700149D01*
X92207780Y-106462054D02*
X92874447Y-106462054D01*
X92779209Y-106462054D02*
X92826828Y-106509673D01*
X92826828Y-106509673D02*
X92874447Y-106604911D01*
X92874447Y-106604911D02*
X92874447Y-106747768D01*
X92874447Y-106747768D02*
X92826828Y-106843006D01*
X92826828Y-106843006D02*
X92731590Y-106890625D01*
X92731590Y-106890625D02*
X92207780Y-106890625D01*
X92731590Y-106890625D02*
X92826828Y-106938244D01*
X92826828Y-106938244D02*
X92874447Y-107033482D01*
X92874447Y-107033482D02*
X92874447Y-107176339D01*
X92874447Y-107176339D02*
X92826828Y-107271578D01*
X92826828Y-107271578D02*
X92731590Y-107319197D01*
X92731590Y-107319197D02*
X92207780Y-107319197D01*
X92255400Y-108176339D02*
X92207780Y-108081101D01*
X92207780Y-108081101D02*
X92207780Y-107890625D01*
X92207780Y-107890625D02*
X92255400Y-107795387D01*
X92255400Y-107795387D02*
X92350638Y-107747768D01*
X92350638Y-107747768D02*
X92731590Y-107747768D01*
X92731590Y-107747768D02*
X92826828Y-107795387D01*
X92826828Y-107795387D02*
X92874447Y-107890625D01*
X92874447Y-107890625D02*
X92874447Y-108081101D01*
X92874447Y-108081101D02*
X92826828Y-108176339D01*
X92826828Y-108176339D02*
X92731590Y-108223958D01*
X92731590Y-108223958D02*
X92636352Y-108223958D01*
X92636352Y-108223958D02*
X92541114Y-107747768D01*
X92874447Y-108652530D02*
X91874447Y-108652530D01*
X92826828Y-108652530D02*
X92874447Y-108747768D01*
X92874447Y-108747768D02*
X92874447Y-108938244D01*
X92874447Y-108938244D02*
X92826828Y-109033482D01*
X92826828Y-109033482D02*
X92779209Y-109081101D01*
X92779209Y-109081101D02*
X92683971Y-109128720D01*
X92683971Y-109128720D02*
X92398257Y-109128720D01*
X92398257Y-109128720D02*
X92303019Y-109081101D01*
X92303019Y-109081101D02*
X92255400Y-109033482D01*
X92255400Y-109033482D02*
X92207780Y-108938244D01*
X92207780Y-108938244D02*
X92207780Y-108747768D01*
X92207780Y-108747768D02*
X92255400Y-108652530D01*
X92207780Y-109700149D02*
X92255400Y-109604911D01*
X92255400Y-109604911D02*
X92303019Y-109557292D01*
X92303019Y-109557292D02*
X92398257Y-109509673D01*
X92398257Y-109509673D02*
X92683971Y-109509673D01*
X92683971Y-109509673D02*
X92779209Y-109557292D01*
X92779209Y-109557292D02*
X92826828Y-109604911D01*
X92826828Y-109604911D02*
X92874447Y-109700149D01*
X92874447Y-109700149D02*
X92874447Y-109843006D01*
X92874447Y-109843006D02*
X92826828Y-109938244D01*
X92826828Y-109938244D02*
X92779209Y-109985863D01*
X92779209Y-109985863D02*
X92683971Y-110033482D01*
X92683971Y-110033482D02*
X92398257Y-110033482D01*
X92398257Y-110033482D02*
X92303019Y-109985863D01*
X92303019Y-109985863D02*
X92255400Y-109938244D01*
X92255400Y-109938244D02*
X92207780Y-109843006D01*
X92207780Y-109843006D02*
X92207780Y-109700149D01*
X92255400Y-110414435D02*
X92207780Y-110509673D01*
X92207780Y-110509673D02*
X92207780Y-110700149D01*
X92207780Y-110700149D02*
X92255400Y-110795387D01*
X92255400Y-110795387D02*
X92350638Y-110843006D01*
X92350638Y-110843006D02*
X92398257Y-110843006D01*
X92398257Y-110843006D02*
X92493495Y-110795387D01*
X92493495Y-110795387D02*
X92541114Y-110700149D01*
X92541114Y-110700149D02*
X92541114Y-110557292D01*
X92541114Y-110557292D02*
X92588733Y-110462054D01*
X92588733Y-110462054D02*
X92683971Y-110414435D01*
X92683971Y-110414435D02*
X92731590Y-110414435D01*
X92731590Y-110414435D02*
X92826828Y-110462054D01*
X92826828Y-110462054D02*
X92874447Y-110557292D01*
X92874447Y-110557292D02*
X92874447Y-110700149D01*
X92874447Y-110700149D02*
X92826828Y-110795387D01*
X92874447Y-111128721D02*
X92874447Y-111509673D01*
X93207780Y-111271578D02*
X92350638Y-111271578D01*
X92350638Y-111271578D02*
X92255400Y-111319197D01*
X92255400Y-111319197D02*
X92207780Y-111414435D01*
X92207780Y-111414435D02*
X92207780Y-111509673D01*
X92874447Y-112509674D02*
X92207780Y-112747769D01*
X92207780Y-112747769D02*
X92874447Y-112985864D01*
X92207780Y-113890626D02*
X92207780Y-113319198D01*
X92207780Y-113604912D02*
X93207780Y-113604912D01*
X93207780Y-113604912D02*
X93064923Y-113509674D01*
X93064923Y-113509674D02*
X92969685Y-113414436D01*
X92969685Y-113414436D02*
X92922066Y-113319198D01*
X92303019Y-114319198D02*
X92255400Y-114366817D01*
X92255400Y-114366817D02*
X92207780Y-114319198D01*
X92207780Y-114319198D02*
X92255400Y-114271579D01*
X92255400Y-114271579D02*
X92303019Y-114319198D01*
X92303019Y-114319198D02*
X92207780Y-114319198D01*
X93207780Y-114985864D02*
X93207780Y-115081102D01*
X93207780Y-115081102D02*
X93160161Y-115176340D01*
X93160161Y-115176340D02*
X93112542Y-115223959D01*
X93112542Y-115223959D02*
X93017304Y-115271578D01*
X93017304Y-115271578D02*
X92826828Y-115319197D01*
X92826828Y-115319197D02*
X92588733Y-115319197D01*
X92588733Y-115319197D02*
X92398257Y-115271578D01*
X92398257Y-115271578D02*
X92303019Y-115223959D01*
X92303019Y-115223959D02*
X92255400Y-115176340D01*
X92255400Y-115176340D02*
X92207780Y-115081102D01*
X92207780Y-115081102D02*
X92207780Y-114985864D01*
X92207780Y-114985864D02*
X92255400Y-114890626D01*
X92255400Y-114890626D02*
X92303019Y-114843007D01*
X92303019Y-114843007D02*
X92398257Y-114795388D01*
X92398257Y-114795388D02*
X92588733Y-114747769D01*
X92588733Y-114747769D02*
X92826828Y-114747769D01*
X92826828Y-114747769D02*
X93017304Y-114795388D01*
X93017304Y-114795388D02*
X93112542Y-114843007D01*
X93112542Y-114843007D02*
X93160161Y-114890626D01*
X93160161Y-114890626D02*
X93207780Y-114985864D01*
D11*
X124761666Y-123636819D02*
X124761666Y-124351104D01*
X124761666Y-124351104D02*
X124714047Y-124493961D01*
X124714047Y-124493961D02*
X124618809Y-124589200D01*
X124618809Y-124589200D02*
X124475952Y-124636819D01*
X124475952Y-124636819D02*
X124380714Y-124636819D01*
X125666428Y-123970152D02*
X125666428Y-124636819D01*
X125428333Y-123589200D02*
X125190238Y-124303485D01*
X125190238Y-124303485D02*
X125809285Y-124303485D01*
X99996666Y-82584819D02*
X99996666Y-83299104D01*
X99996666Y-83299104D02*
X99949047Y-83441961D01*
X99949047Y-83441961D02*
X99853809Y-83537200D01*
X99853809Y-83537200D02*
X99710952Y-83584819D01*
X99710952Y-83584819D02*
X99615714Y-83584819D01*
X100377619Y-82584819D02*
X100996666Y-82584819D01*
X100996666Y-82584819D02*
X100663333Y-82965771D01*
X100663333Y-82965771D02*
X100806190Y-82965771D01*
X100806190Y-82965771D02*
X100901428Y-83013390D01*
X100901428Y-83013390D02*
X100949047Y-83061009D01*
X100949047Y-83061009D02*
X100996666Y-83156247D01*
X100996666Y-83156247D02*
X100996666Y-83394342D01*
X100996666Y-83394342D02*
X100949047Y-83489580D01*
X100949047Y-83489580D02*
X100901428Y-83537200D01*
X100901428Y-83537200D02*
X100806190Y-83584819D01*
X100806190Y-83584819D02*
X100520476Y-83584819D01*
X100520476Y-83584819D02*
X100425238Y-83537200D01*
X100425238Y-83537200D02*
X100377619Y-83489580D01*
X110104580Y-126686666D02*
X110152200Y-126734285D01*
X110152200Y-126734285D02*
X110199819Y-126877142D01*
X110199819Y-126877142D02*
X110199819Y-126972380D01*
X110199819Y-126972380D02*
X110152200Y-127115237D01*
X110152200Y-127115237D02*
X110056961Y-127210475D01*
X110056961Y-127210475D02*
X109961723Y-127258094D01*
X109961723Y-127258094D02*
X109771247Y-127305713D01*
X109771247Y-127305713D02*
X109628390Y-127305713D01*
X109628390Y-127305713D02*
X109437914Y-127258094D01*
X109437914Y-127258094D02*
X109342676Y-127210475D01*
X109342676Y-127210475D02*
X109247438Y-127115237D01*
X109247438Y-127115237D02*
X109199819Y-126972380D01*
X109199819Y-126972380D02*
X109199819Y-126877142D01*
X109199819Y-126877142D02*
X109247438Y-126734285D01*
X109247438Y-126734285D02*
X109295057Y-126686666D01*
X109533152Y-125829523D02*
X110199819Y-125829523D01*
X109152200Y-126067618D02*
X109866485Y-126305713D01*
X109866485Y-126305713D02*
X109866485Y-125686666D01*
X117724580Y-126686666D02*
X117772200Y-126734285D01*
X117772200Y-126734285D02*
X117819819Y-126877142D01*
X117819819Y-126877142D02*
X117819819Y-126972380D01*
X117819819Y-126972380D02*
X117772200Y-127115237D01*
X117772200Y-127115237D02*
X117676961Y-127210475D01*
X117676961Y-127210475D02*
X117581723Y-127258094D01*
X117581723Y-127258094D02*
X117391247Y-127305713D01*
X117391247Y-127305713D02*
X117248390Y-127305713D01*
X117248390Y-127305713D02*
X117057914Y-127258094D01*
X117057914Y-127258094D02*
X116962676Y-127210475D01*
X116962676Y-127210475D02*
X116867438Y-127115237D01*
X116867438Y-127115237D02*
X116819819Y-126972380D01*
X116819819Y-126972380D02*
X116819819Y-126877142D01*
X116819819Y-126877142D02*
X116867438Y-126734285D01*
X116867438Y-126734285D02*
X116915057Y-126686666D01*
X117819819Y-125734285D02*
X117819819Y-126305713D01*
X117819819Y-126019999D02*
X116819819Y-126019999D01*
X116819819Y-126019999D02*
X116962676Y-126115237D01*
X116962676Y-126115237D02*
X117057914Y-126210475D01*
X117057914Y-126210475D02*
X117105533Y-126305713D01*
X131164819Y-85766666D02*
X130688628Y-86099999D01*
X131164819Y-86338094D02*
X130164819Y-86338094D01*
X130164819Y-86338094D02*
X130164819Y-85957142D01*
X130164819Y-85957142D02*
X130212438Y-85861904D01*
X130212438Y-85861904D02*
X130260057Y-85814285D01*
X130260057Y-85814285D02*
X130355295Y-85766666D01*
X130355295Y-85766666D02*
X130498152Y-85766666D01*
X130498152Y-85766666D02*
X130593390Y-85814285D01*
X130593390Y-85814285D02*
X130641009Y-85861904D01*
X130641009Y-85861904D02*
X130688628Y-85957142D01*
X130688628Y-85957142D02*
X130688628Y-86338094D01*
X130498152Y-84909523D02*
X131164819Y-84909523D01*
X130117200Y-85147618D02*
X130831485Y-85385713D01*
X130831485Y-85385713D02*
X130831485Y-84766666D01*
X94419819Y-104306666D02*
X93943628Y-104639999D01*
X94419819Y-104878094D02*
X93419819Y-104878094D01*
X93419819Y-104878094D02*
X93419819Y-104497142D01*
X93419819Y-104497142D02*
X93467438Y-104401904D01*
X93467438Y-104401904D02*
X93515057Y-104354285D01*
X93515057Y-104354285D02*
X93610295Y-104306666D01*
X93610295Y-104306666D02*
X93753152Y-104306666D01*
X93753152Y-104306666D02*
X93848390Y-104354285D01*
X93848390Y-104354285D02*
X93896009Y-104401904D01*
X93896009Y-104401904D02*
X93943628Y-104497142D01*
X93943628Y-104497142D02*
X93943628Y-104878094D01*
X94419819Y-103354285D02*
X94419819Y-103925713D01*
X94419819Y-103639999D02*
X93419819Y-103639999D01*
X93419819Y-103639999D02*
X93562676Y-103735237D01*
X93562676Y-103735237D02*
X93657914Y-103830475D01*
X93657914Y-103830475D02*
X93705533Y-103925713D01*
X134549819Y-131008333D02*
X135264104Y-131008333D01*
X135264104Y-131008333D02*
X135406961Y-131055952D01*
X135406961Y-131055952D02*
X135502200Y-131151190D01*
X135502200Y-131151190D02*
X135549819Y-131294047D01*
X135549819Y-131294047D02*
X135549819Y-131389285D01*
X135549819Y-130532142D02*
X134549819Y-130532142D01*
X134549819Y-130532142D02*
X134549819Y-130151190D01*
X134549819Y-130151190D02*
X134597438Y-130055952D01*
X134597438Y-130055952D02*
X134645057Y-130008333D01*
X134645057Y-130008333D02*
X134740295Y-129960714D01*
X134740295Y-129960714D02*
X134883152Y-129960714D01*
X134883152Y-129960714D02*
X134978390Y-130008333D01*
X134978390Y-130008333D02*
X135026009Y-130055952D01*
X135026009Y-130055952D02*
X135073628Y-130151190D01*
X135073628Y-130151190D02*
X135073628Y-130532142D01*
X135549819Y-129008333D02*
X135549819Y-129579761D01*
X135549819Y-129294047D02*
X134549819Y-129294047D01*
X134549819Y-129294047D02*
X134692676Y-129389285D01*
X134692676Y-129389285D02*
X134787914Y-129484523D01*
X134787914Y-129484523D02*
X134835533Y-129579761D01*
X129399819Y-114608333D02*
X130114104Y-114608333D01*
X130114104Y-114608333D02*
X130256961Y-114655952D01*
X130256961Y-114655952D02*
X130352200Y-114751190D01*
X130352200Y-114751190D02*
X130399819Y-114894047D01*
X130399819Y-114894047D02*
X130399819Y-114989285D01*
X130399819Y-113608333D02*
X130399819Y-114179761D01*
X130399819Y-113894047D02*
X129399819Y-113894047D01*
X129399819Y-113894047D02*
X129542676Y-113989285D01*
X129542676Y-113989285D02*
X129637914Y-114084523D01*
X129637914Y-114084523D02*
X129685533Y-114179761D01*
X94419819Y-95416666D02*
X93943628Y-95749999D01*
X94419819Y-95988094D02*
X93419819Y-95988094D01*
X93419819Y-95988094D02*
X93419819Y-95607142D01*
X93419819Y-95607142D02*
X93467438Y-95511904D01*
X93467438Y-95511904D02*
X93515057Y-95464285D01*
X93515057Y-95464285D02*
X93610295Y-95416666D01*
X93610295Y-95416666D02*
X93753152Y-95416666D01*
X93753152Y-95416666D02*
X93848390Y-95464285D01*
X93848390Y-95464285D02*
X93896009Y-95511904D01*
X93896009Y-95511904D02*
X93943628Y-95607142D01*
X93943628Y-95607142D02*
X93943628Y-95988094D01*
X93515057Y-95035713D02*
X93467438Y-94988094D01*
X93467438Y-94988094D02*
X93419819Y-94892856D01*
X93419819Y-94892856D02*
X93419819Y-94654761D01*
X93419819Y-94654761D02*
X93467438Y-94559523D01*
X93467438Y-94559523D02*
X93515057Y-94511904D01*
X93515057Y-94511904D02*
X93610295Y-94464285D01*
X93610295Y-94464285D02*
X93705533Y-94464285D01*
X93705533Y-94464285D02*
X93848390Y-94511904D01*
X93848390Y-94511904D02*
X94419819Y-95083332D01*
X94419819Y-95083332D02*
X94419819Y-94464285D01*
X137089819Y-126698333D02*
X137804104Y-126698333D01*
X137804104Y-126698333D02*
X137946961Y-126745952D01*
X137946961Y-126745952D02*
X138042200Y-126841190D01*
X138042200Y-126841190D02*
X138089819Y-126984047D01*
X138089819Y-126984047D02*
X138089819Y-127079285D01*
X137089819Y-125745952D02*
X137089819Y-126222142D01*
X137089819Y-126222142D02*
X137566009Y-126269761D01*
X137566009Y-126269761D02*
X137518390Y-126222142D01*
X137518390Y-126222142D02*
X137470771Y-126126904D01*
X137470771Y-126126904D02*
X137470771Y-125888809D01*
X137470771Y-125888809D02*
X137518390Y-125793571D01*
X137518390Y-125793571D02*
X137566009Y-125745952D01*
X137566009Y-125745952D02*
X137661247Y-125698333D01*
X137661247Y-125698333D02*
X137899342Y-125698333D01*
X137899342Y-125698333D02*
X137994580Y-125745952D01*
X137994580Y-125745952D02*
X138042200Y-125793571D01*
X138042200Y-125793571D02*
X138089819Y-125888809D01*
X138089819Y-125888809D02*
X138089819Y-126126904D01*
X138089819Y-126126904D02*
X138042200Y-126222142D01*
X138042200Y-126222142D02*
X137994580Y-126269761D01*
X128189819Y-102401666D02*
X127713628Y-102734999D01*
X128189819Y-102973094D02*
X127189819Y-102973094D01*
X127189819Y-102973094D02*
X127189819Y-102592142D01*
X127189819Y-102592142D02*
X127237438Y-102496904D01*
X127237438Y-102496904D02*
X127285057Y-102449285D01*
X127285057Y-102449285D02*
X127380295Y-102401666D01*
X127380295Y-102401666D02*
X127523152Y-102401666D01*
X127523152Y-102401666D02*
X127618390Y-102449285D01*
X127618390Y-102449285D02*
X127666009Y-102496904D01*
X127666009Y-102496904D02*
X127713628Y-102592142D01*
X127713628Y-102592142D02*
X127713628Y-102973094D01*
X127189819Y-102068332D02*
X127189819Y-101449285D01*
X127189819Y-101449285D02*
X127570771Y-101782618D01*
X127570771Y-101782618D02*
X127570771Y-101639761D01*
X127570771Y-101639761D02*
X127618390Y-101544523D01*
X127618390Y-101544523D02*
X127666009Y-101496904D01*
X127666009Y-101496904D02*
X127761247Y-101449285D01*
X127761247Y-101449285D02*
X127999342Y-101449285D01*
X127999342Y-101449285D02*
X128094580Y-101496904D01*
X128094580Y-101496904D02*
X128142200Y-101544523D01*
X128142200Y-101544523D02*
X128189819Y-101639761D01*
X128189819Y-101639761D02*
X128189819Y-101925475D01*
X128189819Y-101925475D02*
X128142200Y-102020713D01*
X128142200Y-102020713D02*
X128094580Y-102068332D01*
X112644580Y-126686666D02*
X112692200Y-126734285D01*
X112692200Y-126734285D02*
X112739819Y-126877142D01*
X112739819Y-126877142D02*
X112739819Y-126972380D01*
X112739819Y-126972380D02*
X112692200Y-127115237D01*
X112692200Y-127115237D02*
X112596961Y-127210475D01*
X112596961Y-127210475D02*
X112501723Y-127258094D01*
X112501723Y-127258094D02*
X112311247Y-127305713D01*
X112311247Y-127305713D02*
X112168390Y-127305713D01*
X112168390Y-127305713D02*
X111977914Y-127258094D01*
X111977914Y-127258094D02*
X111882676Y-127210475D01*
X111882676Y-127210475D02*
X111787438Y-127115237D01*
X111787438Y-127115237D02*
X111739819Y-126972380D01*
X111739819Y-126972380D02*
X111739819Y-126877142D01*
X111739819Y-126877142D02*
X111787438Y-126734285D01*
X111787438Y-126734285D02*
X111835057Y-126686666D01*
X111739819Y-126353332D02*
X111739819Y-125734285D01*
X111739819Y-125734285D02*
X112120771Y-126067618D01*
X112120771Y-126067618D02*
X112120771Y-125924761D01*
X112120771Y-125924761D02*
X112168390Y-125829523D01*
X112168390Y-125829523D02*
X112216009Y-125781904D01*
X112216009Y-125781904D02*
X112311247Y-125734285D01*
X112311247Y-125734285D02*
X112549342Y-125734285D01*
X112549342Y-125734285D02*
X112644580Y-125781904D01*
X112644580Y-125781904D02*
X112692200Y-125829523D01*
X112692200Y-125829523D02*
X112739819Y-125924761D01*
X112739819Y-125924761D02*
X112739819Y-126210475D01*
X112739819Y-126210475D02*
X112692200Y-126305713D01*
X112692200Y-126305713D02*
X112644580Y-126353332D01*
X115184580Y-126686666D02*
X115232200Y-126734285D01*
X115232200Y-126734285D02*
X115279819Y-126877142D01*
X115279819Y-126877142D02*
X115279819Y-126972380D01*
X115279819Y-126972380D02*
X115232200Y-127115237D01*
X115232200Y-127115237D02*
X115136961Y-127210475D01*
X115136961Y-127210475D02*
X115041723Y-127258094D01*
X115041723Y-127258094D02*
X114851247Y-127305713D01*
X114851247Y-127305713D02*
X114708390Y-127305713D01*
X114708390Y-127305713D02*
X114517914Y-127258094D01*
X114517914Y-127258094D02*
X114422676Y-127210475D01*
X114422676Y-127210475D02*
X114327438Y-127115237D01*
X114327438Y-127115237D02*
X114279819Y-126972380D01*
X114279819Y-126972380D02*
X114279819Y-126877142D01*
X114279819Y-126877142D02*
X114327438Y-126734285D01*
X114327438Y-126734285D02*
X114375057Y-126686666D01*
X114375057Y-126305713D02*
X114327438Y-126258094D01*
X114327438Y-126258094D02*
X114279819Y-126162856D01*
X114279819Y-126162856D02*
X114279819Y-125924761D01*
X114279819Y-125924761D02*
X114327438Y-125829523D01*
X114327438Y-125829523D02*
X114375057Y-125781904D01*
X114375057Y-125781904D02*
X114470295Y-125734285D01*
X114470295Y-125734285D02*
X114565533Y-125734285D01*
X114565533Y-125734285D02*
X114708390Y-125781904D01*
X114708390Y-125781904D02*
X115279819Y-126353332D01*
X115279819Y-126353332D02*
X115279819Y-125734285D01*
X129409819Y-92383333D02*
X130124104Y-92383333D01*
X130124104Y-92383333D02*
X130266961Y-92430952D01*
X130266961Y-92430952D02*
X130362200Y-92526190D01*
X130362200Y-92526190D02*
X130409819Y-92669047D01*
X130409819Y-92669047D02*
X130409819Y-92764285D01*
X129505057Y-91954761D02*
X129457438Y-91907142D01*
X129457438Y-91907142D02*
X129409819Y-91811904D01*
X129409819Y-91811904D02*
X129409819Y-91573809D01*
X129409819Y-91573809D02*
X129457438Y-91478571D01*
X129457438Y-91478571D02*
X129505057Y-91430952D01*
X129505057Y-91430952D02*
X129600295Y-91383333D01*
X129600295Y-91383333D02*
X129695533Y-91383333D01*
X129695533Y-91383333D02*
X129838390Y-91430952D01*
X129838390Y-91430952D02*
X130409819Y-92002380D01*
X130409819Y-92002380D02*
X130409819Y-91383333D01*
D12*
%TO.C,J4*%
X126425000Y-120142000D02*
X126425000Y-84522000D01*
X126425000Y-120142000D02*
X123765000Y-120142000D01*
X126425000Y-84522000D02*
X123765000Y-84522000D01*
X125095000Y-122742000D02*
X123765000Y-122742000D01*
X123765000Y-122742000D02*
X123765000Y-121412000D01*
X123765000Y-120142000D02*
X123765000Y-84522000D01*
%TO.C,J3*%
X101660000Y-87170000D02*
X101660000Y-122790000D01*
X101660000Y-84570000D02*
X101660000Y-85900000D01*
X100330000Y-84570000D02*
X101660000Y-84570000D01*
X99000000Y-122790000D02*
X101660000Y-122790000D01*
X99000000Y-87170000D02*
X101660000Y-87170000D01*
X99000000Y-87170000D02*
X99000000Y-122790000D01*
%TO.C,C4*%
X108225000Y-126412164D02*
X108225000Y-126627836D01*
X108945000Y-126412164D02*
X108945000Y-126627836D01*
%TO.C,C1*%
X115845000Y-126412164D02*
X115845000Y-126627836D01*
X116565000Y-126412164D02*
X116565000Y-126627836D01*
%TO.C,R4*%
X129160000Y-85446359D02*
X129160000Y-85753641D01*
X129920000Y-85446359D02*
X129920000Y-85753641D01*
%TO.C,R1*%
X94965000Y-106060000D02*
X94965000Y-102220000D01*
X96805000Y-106060000D02*
X96805000Y-102220000D01*
%TO.C,JP1*%
X128795000Y-128795000D02*
X128795000Y-131555000D01*
X131445000Y-128795000D02*
X128795000Y-128795000D01*
X131445000Y-128795000D02*
X131445000Y-131555000D01*
X131445000Y-131555000D02*
X128795000Y-131555000D01*
X132715000Y-128795000D02*
X134095000Y-128795000D01*
X134095000Y-128795000D02*
X134095000Y-130175000D01*
%TO.C,J1*%
X131385000Y-112945000D02*
X132715000Y-112945000D01*
X131385000Y-114275000D02*
X131385000Y-112945000D01*
X133985000Y-112945000D02*
X141665000Y-112945000D01*
X133985000Y-115605000D02*
X133985000Y-112945000D01*
X133985000Y-115605000D02*
X141665000Y-115605000D01*
X141665000Y-115605000D02*
X141665000Y-112945000D01*
%TO.C,R2*%
X94965000Y-97170000D02*
X94965000Y-93330000D01*
X96805000Y-97170000D02*
X96805000Y-93330000D01*
%TO.C,J5*%
X128795000Y-124985000D02*
X128795000Y-127745000D01*
X133985000Y-124985000D02*
X128795000Y-124985000D01*
X133985000Y-124985000D02*
X133985000Y-127745000D01*
X133985000Y-127745000D02*
X128795000Y-127745000D01*
X135255000Y-124985000D02*
X136635000Y-124985000D01*
X136635000Y-124985000D02*
X136635000Y-126365000D01*
%TO.C,R3*%
X128525000Y-102388641D02*
X128525000Y-102081359D01*
X129285000Y-102388641D02*
X129285000Y-102081359D01*
%TO.C,C3*%
X110765000Y-126412164D02*
X110765000Y-126627836D01*
X111485000Y-126412164D02*
X111485000Y-126627836D01*
%TO.C,C2*%
X113305000Y-126412164D02*
X113305000Y-126627836D01*
X114025000Y-126412164D02*
X114025000Y-126627836D01*
%TO.C,J2*%
X131395000Y-90720000D02*
X132725000Y-90720000D01*
X131395000Y-92050000D02*
X131395000Y-90720000D01*
X133995000Y-90720000D02*
X141675000Y-90720000D01*
X133995000Y-93380000D02*
X133995000Y-90720000D01*
X133995000Y-93380000D02*
X141675000Y-93380000D01*
X141675000Y-93380000D02*
X141675000Y-90720000D01*
%TD*%
M02*
