M48
; DRILL file {KiCad 9.0.4} date 2025-08-21T19:51:03+0300
; FORMAT={-:-/ absolute / metric / decimal}
; #@! TF.CreationDate,2025-08-21T19:51:03+03:00
; #@! TF.GenerationSoftware,Kicad,Pcbnew,9.0.4
; #@! TF.FileFunction,MixedPlating,1,2
FMAT,2
METRIC
; #@! TA.AperFunction,Plated,PTH,ViaDrill
T1C0.300
; #@! TA.AperFunction,Plated,PTH,ComponentDrill
T2C0.700
; #@! TA.AperFunction,Plated,PTH,ComponentDrill
T3C1.000
; #@! TA.AperFunction,NonPlated,NPTH,ComponentDrill
T4C3.200
%
G90
G05
T1
X108.585Y-128.27
X111.125Y-128.27
X113.665Y-128.27
X116.205Y-128.27
T2
X95.885Y-92.71
X95.885Y-97.79
X95.885Y-101.6
X95.885Y-106.68
T3
X100.33Y-85.9
X100.33Y-88.44
X100.33Y-90.98
X100.33Y-93.52
X100.33Y-96.06
X100.33Y-98.6
X100.33Y-101.14
X100.33Y-103.68
X100.33Y-106.22
X100.33Y-108.76
X100.33Y-111.3
X100.33Y-113.84
X100.33Y-116.38
X100.33Y-118.92
X100.33Y-121.46
X125.095Y-85.852
X125.095Y-88.392
X125.095Y-90.932
X125.095Y-93.472
X125.095Y-96.012
X125.095Y-98.552
X125.095Y-101.092
X125.095Y-103.632
X125.095Y-106.172
X125.095Y-108.712
X125.095Y-111.252
X125.095Y-113.792
X125.095Y-116.332
X125.095Y-118.872
X125.095Y-121.412
X130.175Y-126.365
X130.175Y-130.175
X132.715Y-114.275
X132.715Y-126.365
X132.715Y-130.175
X132.725Y-92.05
X135.255Y-114.275
X135.255Y-126.365
X135.265Y-92.05
X137.795Y-114.275
X137.805Y-92.05
X140.335Y-114.275
X140.345Y-92.05
T4
X94.615Y-83.82
X94.615Y-131.445
X139.7Y-83.82
X139.7Y-131.445
M30
