%TF.GenerationSoftware,KiCad,Pcbnew,9.0.4*%
%TF.CreationDate,2025-08-21T19:51:14+03:00*%
%TF.ProjectId,homepost,686f6d65-706f-4737-942e-6b696361645f,rev?*%
%TF.SameCoordinates,Original*%
%TF.FileFunction,Soldermask,Bot*%
%TF.FilePolarity,Negative*%
%FSLAX46Y46*%
G04 Gerber Fmt 4.6, Leading zero omitted, Abs format (unit mm)*
G04 Created by KiCad (PCBNEW 9.0.4) date 2025-08-21 19:51:14*
%MOMM*%
%LPD*%
G01*
G04 APERTURE LIST*
%ADD10C,1.700000*%
%ADD11R,1.700000X1.700000*%
%ADD12C,3.200000*%
%ADD13C,1.400000*%
G04 APERTURE END LIST*
D10*
%TO.C,J4*%
X125095000Y-85852000D03*
X125095000Y-88392000D03*
X125095000Y-90932000D03*
X125095000Y-93472000D03*
X125095000Y-96012000D03*
X125095000Y-98552000D03*
X125095000Y-101092000D03*
X125095000Y-103632000D03*
X125095000Y-106172000D03*
X125095000Y-108712000D03*
X125095000Y-111252000D03*
X125095000Y-113792000D03*
X125095000Y-116332000D03*
X125095000Y-118872000D03*
D11*
X125095000Y-121412000D03*
%TD*%
D10*
%TO.C,J3*%
X100330000Y-121460000D03*
X100330000Y-118920000D03*
X100330000Y-116380000D03*
X100330000Y-113840000D03*
X100330000Y-111300000D03*
X100330000Y-108760000D03*
X100330000Y-106220000D03*
X100330000Y-103680000D03*
X100330000Y-101140000D03*
X100330000Y-98600000D03*
X100330000Y-96060000D03*
X100330000Y-93520000D03*
X100330000Y-90980000D03*
X100330000Y-88440000D03*
D11*
X100330000Y-85900000D03*
%TD*%
D12*
%TO.C,REF\u002A\u002A*%
X139700000Y-131445000D03*
%TD*%
%TO.C,REF\u002A\u002A*%
X139700000Y-83820000D03*
%TD*%
%TO.C,REF\u002A\u002A*%
X94615000Y-131445000D03*
%TD*%
D13*
%TO.C,R1*%
X95885000Y-106680000D03*
X95885000Y-101600000D03*
%TD*%
D11*
%TO.C,JP1*%
X132715000Y-130175000D03*
D10*
X130175000Y-130175000D03*
%TD*%
D11*
%TO.C,J1*%
X132715000Y-114275000D03*
D10*
X135255000Y-114275000D03*
X137795000Y-114275000D03*
X140335000Y-114275000D03*
%TD*%
D13*
%TO.C,R2*%
X95885000Y-97790000D03*
X95885000Y-92710000D03*
%TD*%
D11*
%TO.C,J5*%
X135255000Y-126365000D03*
D10*
X132715000Y-126365000D03*
X130175000Y-126365000D03*
%TD*%
D12*
%TO.C,REF\u002A\u002A*%
X94615000Y-83820000D03*
%TD*%
D11*
%TO.C,J2*%
X132725000Y-92050000D03*
D10*
X135265000Y-92050000D03*
X137805000Y-92050000D03*
X140345000Y-92050000D03*
%TD*%
M02*
