%TF.GenerationSoftware,KiCad,Pcbnew,9.0.4*%
%TF.CreationDate,2025-08-21T19:51:14+03:00*%
%TF.ProjectId,homepost,686f6d65-706f-4737-942e-6b696361645f,rev?*%
%TF.SameCoordinates,Original*%
%TF.FileFunction,Copper,L1,Top*%
%TF.FilePolarity,Positive*%
%FSLAX46Y46*%
G04 Gerber Fmt 4.6, Leading zero omitted, Abs format (unit mm)*
G04 Created by KiCad (PCBNEW 9.0.4) date 2025-08-21 19:51:14*
%MOMM*%
%LPD*%
G01*
G04 APERTURE LIST*
G04 Aperture macros list*
%AMRoundRect*
0 Rectangle with rounded corners*
0 $1 Rounding radius*
0 $2 $3 $4 $5 $6 $7 $8 $9 X,Y pos of 4 corners*
0 Add a 4 corners polygon primitive as box body*
4,1,4,$2,$3,$4,$5,$6,$7,$8,$9,$2,$3,0*
0 Add four circle primitives for the rounded corners*
1,1,$1+$1,$2,$3*
1,1,$1+$1,$4,$5*
1,1,$1+$1,$6,$7*
1,1,$1+$1,$8,$9*
0 Add four rect primitives between the rounded corners*
20,1,$1+$1,$2,$3,$4,$5,0*
20,1,$1+$1,$4,$5,$6,$7,0*
20,1,$1+$1,$6,$7,$8,$9,0*
20,1,$1+$1,$8,$9,$2,$3,0*%
G04 Aperture macros list end*
%TA.AperFunction,ComponentPad*%
%ADD10C,1.700000*%
%TD*%
%TA.AperFunction,ComponentPad*%
%ADD11R,1.700000X1.700000*%
%TD*%
%TA.AperFunction,SMDPad,CuDef*%
%ADD12RoundRect,0.140000X-0.170000X0.140000X-0.170000X-0.140000X0.170000X-0.140000X0.170000X0.140000X0*%
%TD*%
%TA.AperFunction,SMDPad,CuDef*%
%ADD13RoundRect,0.135000X-0.185000X0.135000X-0.185000X-0.135000X0.185000X-0.135000X0.185000X0.135000X0*%
%TD*%
%TA.AperFunction,ComponentPad*%
%ADD14C,1.400000*%
%TD*%
%TA.AperFunction,SMDPad,CuDef*%
%ADD15RoundRect,0.135000X0.185000X-0.135000X0.185000X0.135000X-0.185000X0.135000X-0.185000X-0.135000X0*%
%TD*%
%TA.AperFunction,ViaPad*%
%ADD16C,0.600000*%
%TD*%
%TA.AperFunction,Conductor*%
%ADD17C,0.600000*%
%TD*%
%TA.AperFunction,Conductor*%
%ADD18C,0.200000*%
%TD*%
G04 APERTURE END LIST*
D10*
%TO.P,J4,15,Pin_15*%
%TO.N,unconnected-(J4-Pin_15-Pad15)*%
X125095000Y-85852000D03*
%TO.P,J4,14,Pin_14*%
%TO.N,/I2C_SCL*%
X125095000Y-88392000D03*
%TO.P,J4,13,Pin_13*%
%TO.N,unconnected-(J4-Pin_13-Pad13)*%
X125095000Y-90932000D03*
%TO.P,J4,12,Pin_12*%
%TO.N,unconnected-(J4-Pin_12-Pad12)*%
X125095000Y-93472000D03*
%TO.P,J4,11,Pin_11*%
%TO.N,/I2C_SDA*%
X125095000Y-96012000D03*
%TO.P,J4,10,Pin_10*%
%TO.N,unconnected-(J4-Pin_10-Pad10)*%
X125095000Y-98552000D03*
%TO.P,J4,9,Pin_9*%
%TO.N,unconnected-(J4-Pin_9-Pad9)*%
X125095000Y-101092000D03*
%TO.P,J4,8,Pin_8*%
%TO.N,unconnected-(J4-Pin_8-Pad8)*%
X125095000Y-103632000D03*
%TO.P,J4,7,Pin_7*%
%TO.N,unconnected-(J4-Pin_7-Pad7)*%
X125095000Y-106172000D03*
%TO.P,J4,6,Pin_6*%
%TO.N,unconnected-(J4-Pin_6-Pad6)*%
X125095000Y-108712000D03*
%TO.P,J4,5,Pin_5*%
%TO.N,/GEIGER_COUNTER_IN*%
X125095000Y-111252000D03*
%TO.P,J4,4,Pin_4*%
%TO.N,unconnected-(J4-Pin_4-Pad4)*%
X125095000Y-113792000D03*
%TO.P,J4,3,Pin_3*%
%TO.N,unconnected-(J4-Pin_3-Pad3)*%
X125095000Y-116332000D03*
%TO.P,J4,2,Pin_2*%
%TO.N,GND*%
X125095000Y-118872000D03*
D11*
%TO.P,J4,1,Pin_1*%
%TO.N,+3.3V*%
X125095000Y-121412000D03*
%TD*%
D10*
%TO.P,J3,15,Pin_15*%
%TO.N,VCC*%
X100330000Y-121460000D03*
%TO.P,J3,14,Pin_14*%
%TO.N,GND*%
X100330000Y-118920000D03*
%TO.P,J3,13,Pin_13*%
%TO.N,unconnected-(J3-Pin_13-Pad13)*%
X100330000Y-116380000D03*
%TO.P,J3,12,Pin_12*%
%TO.N,unconnected-(J3-Pin_12-Pad12)*%
X100330000Y-113840000D03*
%TO.P,J3,11,Pin_11*%
%TO.N,unconnected-(J3-Pin_11-Pad11)*%
X100330000Y-111300000D03*
%TO.P,J3,10,Pin_10*%
%TO.N,unconnected-(J3-Pin_10-Pad10)*%
X100330000Y-108760000D03*
%TO.P,J3,9,Pin_9*%
%TO.N,unconnected-(J3-Pin_9-Pad9)*%
X100330000Y-106220000D03*
%TO.P,J3,8,Pin_8*%
%TO.N,unconnected-(J3-Pin_8-Pad8)*%
X100330000Y-103680000D03*
%TO.P,J3,7,Pin_7*%
%TO.N,unconnected-(J3-Pin_7-Pad7)*%
X100330000Y-101140000D03*
%TO.P,J3,6,Pin_6*%
%TO.N,unconnected-(J3-Pin_6-Pad6)*%
X100330000Y-98600000D03*
%TO.P,J3,5,Pin_5*%
%TO.N,unconnected-(J3-Pin_5-Pad5)*%
X100330000Y-96060000D03*
%TO.P,J3,4,Pin_4*%
%TO.N,/PHOTORESISTOR_IN*%
X100330000Y-93520000D03*
%TO.P,J3,3,Pin_3*%
%TO.N,unconnected-(J3-Pin_3-Pad3)*%
X100330000Y-90980000D03*
%TO.P,J3,2,Pin_2*%
%TO.N,unconnected-(J3-Pin_2-Pad2)*%
X100330000Y-88440000D03*
D11*
%TO.P,J3,1,Pin_1*%
%TO.N,unconnected-(J3-Pin_1-Pad1)*%
X100330000Y-85900000D03*
%TD*%
D12*
%TO.P,C4,1*%
%TO.N,VCC*%
X108585000Y-126040000D03*
%TO.P,C4,2*%
%TO.N,GND*%
X108585000Y-127000000D03*
%TD*%
%TO.P,C1,1*%
%TO.N,VCC*%
X116205000Y-126040000D03*
%TO.P,C1,2*%
%TO.N,GND*%
X116205000Y-127000000D03*
%TD*%
D13*
%TO.P,R4,1*%
%TO.N,+3.3V*%
X129540000Y-85090000D03*
%TO.P,R4,2*%
%TO.N,/I2C_SCL*%
X129540000Y-86110000D03*
%TD*%
D14*
%TO.P,R1,1*%
%TO.N,GND*%
X95885000Y-106680000D03*
%TO.P,R1,2*%
%TO.N,/PHOTORESISTOR_IN*%
X95885000Y-101600000D03*
%TD*%
D11*
%TO.P,JP1,1,A*%
%TO.N,+5V*%
X132715000Y-130175000D03*
D10*
%TO.P,JP1,2,B*%
%TO.N,VCC*%
X130175000Y-130175000D03*
%TD*%
D11*
%TO.P,J1,1,Pin_1*%
%TO.N,/I2C_SDA*%
X132715000Y-114275000D03*
D10*
%TO.P,J1,2,Pin_2*%
%TO.N,/I2C_SCL*%
X135255000Y-114275000D03*
%TO.P,J1,3,Pin_3*%
%TO.N,GND*%
X137795000Y-114275000D03*
%TO.P,J1,4,Pin_4*%
%TO.N,+3.3V*%
X140335000Y-114275000D03*
%TD*%
D14*
%TO.P,R2,1*%
%TO.N,/PHOTORESISTOR_IN*%
X95885000Y-97790000D03*
%TO.P,R2,2*%
%TO.N,+3.3V*%
X95885000Y-92710000D03*
%TD*%
D11*
%TO.P,J5,1,Pin_1*%
%TO.N,GND*%
X135255000Y-126365000D03*
D10*
%TO.P,J5,2,Pin_2*%
%TO.N,+5V*%
X132715000Y-126365000D03*
%TO.P,J5,3,Pin_3*%
%TO.N,/GEIGER_COUNTER_IN*%
X130175000Y-126365000D03*
%TD*%
D15*
%TO.P,R3,1*%
%TO.N,+3.3V*%
X128905000Y-102745000D03*
%TO.P,R3,2*%
%TO.N,/I2C_SDA*%
X128905000Y-101725000D03*
%TD*%
D12*
%TO.P,C3,1*%
%TO.N,VCC*%
X111125000Y-126040000D03*
%TO.P,C3,2*%
%TO.N,GND*%
X111125000Y-127000000D03*
%TD*%
%TO.P,C2,1*%
%TO.N,VCC*%
X113665000Y-126040000D03*
%TO.P,C2,2*%
%TO.N,GND*%
X113665000Y-127000000D03*
%TD*%
D11*
%TO.P,J2,1,Pin_1*%
%TO.N,/I2C_SDA*%
X132725000Y-92050000D03*
D10*
%TO.P,J2,2,Pin_2*%
%TO.N,/I2C_SCL*%
X135265000Y-92050000D03*
%TO.P,J2,3,Pin_3*%
%TO.N,GND*%
X137805000Y-92050000D03*
%TO.P,J2,4,Pin_4*%
%TO.N,+3.3V*%
X140345000Y-92050000D03*
%TD*%
D16*
%TO.N,GND*%
X116205000Y-128270000D03*
X111125000Y-128270000D03*
X108585000Y-128270000D03*
X113665000Y-128270000D03*
%TD*%
D17*
%TO.N,/PHOTORESISTOR_IN*%
X95885000Y-99695000D02*
X95885000Y-97965000D01*
X95885000Y-97965000D02*
X100330000Y-93520000D01*
X95885000Y-99695000D02*
X95885000Y-101600000D01*
X95885000Y-97790000D02*
X95885000Y-99695000D01*
%TO.N,/I2C_SDA*%
X129057000Y-92050000D02*
X125095000Y-96012000D01*
X132715000Y-96520000D02*
X132725000Y-96510000D01*
X132725000Y-96510000D02*
X132725000Y-92050000D01*
X128905000Y-92202000D02*
X129057000Y-92050000D01*
X132715000Y-114275000D02*
X132715000Y-96520000D01*
X132725000Y-92050000D02*
X129057000Y-92050000D01*
X128905000Y-101725000D02*
X128905000Y-92202000D01*
%TO.N,/I2C_SCL*%
X129540000Y-90170000D02*
X126873000Y-90170000D01*
X134620000Y-90170000D02*
X129540000Y-90170000D01*
X135265000Y-92050000D02*
X135265000Y-90815000D01*
X126873000Y-90170000D02*
X125095000Y-88392000D01*
X135255000Y-96520000D02*
X135265000Y-96510000D01*
X135265000Y-90815000D02*
X134620000Y-90170000D01*
X129540000Y-90170000D02*
X129540000Y-86110000D01*
X135265000Y-96510000D02*
X135265000Y-92050000D01*
X135255000Y-96520000D02*
X135255000Y-114275000D01*
D18*
%TO.N,GND*%
X111125000Y-127000000D02*
X111125000Y-128270000D01*
X108585000Y-127000000D02*
X108585000Y-128270000D01*
X116205000Y-127000000D02*
X116205000Y-128270000D01*
X113665000Y-127000000D02*
X113665000Y-128270000D01*
D17*
%TO.N,+5V*%
X132715000Y-126365000D02*
X132715000Y-130175000D01*
%TO.N,VCC*%
X108585000Y-126040000D02*
X104910000Y-126040000D01*
X117150000Y-126040000D02*
X121285000Y-130175000D01*
X113665000Y-126040000D02*
X111125000Y-126040000D01*
X104910000Y-126040000D02*
X100330000Y-121460000D01*
X116205000Y-126040000D02*
X113665000Y-126040000D01*
X111125000Y-126040000D02*
X108585000Y-126040000D01*
X121285000Y-130175000D02*
X130175000Y-130175000D01*
X116205000Y-126040000D02*
X117150000Y-126040000D01*
%TO.N,/GEIGER_COUNTER_IN*%
X121285000Y-115062000D02*
X125095000Y-111252000D01*
X130175000Y-126365000D02*
X125095000Y-126365000D01*
X121285000Y-122555000D02*
X121285000Y-115062000D01*
X125095000Y-126365000D02*
X121285000Y-122555000D01*
%TD*%
%TA.AperFunction,Conductor*%
%TO.N,+3.3V*%
G36*
X139703243Y-80510669D02*
G01*
X140039450Y-80528290D01*
X140052358Y-80529647D01*
X140381677Y-80581806D01*
X140394342Y-80584497D01*
X140716422Y-80670798D01*
X140728749Y-80674803D01*
X141040038Y-80794296D01*
X141051873Y-80799565D01*
X141348976Y-80950947D01*
X141360191Y-80957423D01*
X141639832Y-81139023D01*
X141650313Y-81146638D01*
X141909441Y-81356475D01*
X141919086Y-81365160D01*
X142154839Y-81600913D01*
X142163524Y-81610558D01*
X142373359Y-81869683D01*
X142380978Y-81880171D01*
X142562573Y-82159802D01*
X142569055Y-82171029D01*
X142698834Y-82425733D01*
X142720429Y-82468115D01*
X142725708Y-82479972D01*
X142845193Y-82791241D01*
X142849204Y-82803586D01*
X142935498Y-83125642D01*
X142938196Y-83138337D01*
X142990352Y-83467641D01*
X142991709Y-83480549D01*
X143009330Y-83816756D01*
X143009500Y-83823246D01*
X143009500Y-131441753D01*
X143009330Y-131448243D01*
X142991709Y-131784450D01*
X142990352Y-131797358D01*
X142938196Y-132126662D01*
X142935498Y-132139357D01*
X142849204Y-132461413D01*
X142845193Y-132473758D01*
X142725708Y-132785027D01*
X142720429Y-132796884D01*
X142569059Y-133093964D01*
X142562569Y-133105204D01*
X142380983Y-133384822D01*
X142373354Y-133395323D01*
X142163524Y-133654441D01*
X142154839Y-133664086D01*
X141919086Y-133899839D01*
X141909441Y-133908524D01*
X141650323Y-134118354D01*
X141639822Y-134125983D01*
X141360204Y-134307569D01*
X141348964Y-134314059D01*
X141051884Y-134465429D01*
X141040027Y-134470708D01*
X140728758Y-134590193D01*
X140716413Y-134594204D01*
X140394357Y-134680498D01*
X140381662Y-134683196D01*
X140052358Y-134735352D01*
X140039450Y-134736709D01*
X139703244Y-134754330D01*
X139696754Y-134754500D01*
X94618246Y-134754500D01*
X94611756Y-134754330D01*
X94275549Y-134736709D01*
X94262641Y-134735352D01*
X93933337Y-134683196D01*
X93920642Y-134680498D01*
X93598586Y-134594204D01*
X93586241Y-134590193D01*
X93274972Y-134470708D01*
X93263115Y-134465429D01*
X92966029Y-134314055D01*
X92954802Y-134307573D01*
X92675171Y-134125978D01*
X92664683Y-134118359D01*
X92405558Y-133908524D01*
X92395913Y-133899839D01*
X92160160Y-133664086D01*
X92151475Y-133654441D01*
X92062648Y-133544749D01*
X91941638Y-133395313D01*
X91934023Y-133384832D01*
X91752423Y-133105191D01*
X91745947Y-133093976D01*
X91594565Y-132796873D01*
X91589296Y-132785038D01*
X91469803Y-132473749D01*
X91465798Y-132461422D01*
X91379497Y-132139342D01*
X91376806Y-132126677D01*
X91324647Y-131797358D01*
X91323290Y-131784450D01*
X91305670Y-131448243D01*
X91305500Y-131441753D01*
X91305500Y-131323711D01*
X92764500Y-131323711D01*
X92764500Y-131566288D01*
X92796161Y-131806785D01*
X92858947Y-132041104D01*
X92899645Y-132139357D01*
X92951776Y-132265212D01*
X93073064Y-132475289D01*
X93073066Y-132475292D01*
X93073067Y-132475293D01*
X93220733Y-132667736D01*
X93220739Y-132667743D01*
X93392256Y-132839260D01*
X93392262Y-132839265D01*
X93584711Y-132986936D01*
X93794788Y-133108224D01*
X94018900Y-133201054D01*
X94253211Y-133263838D01*
X94433586Y-133287584D01*
X94493711Y-133295500D01*
X94493712Y-133295500D01*
X94736289Y-133295500D01*
X94784388Y-133289167D01*
X94976789Y-133263838D01*
X95211100Y-133201054D01*
X95435212Y-133108224D01*
X95645289Y-132986936D01*
X95837738Y-132839265D01*
X96009265Y-132667738D01*
X96156936Y-132475289D01*
X96278224Y-132265212D01*
X96371054Y-132041100D01*
X96433838Y-131806789D01*
X96465500Y-131566288D01*
X96465500Y-131323712D01*
X96433838Y-131083211D01*
X96371054Y-130848900D01*
X96278224Y-130624788D01*
X96156936Y-130414711D01*
X96009265Y-130222262D01*
X96009260Y-130222256D01*
X95837743Y-130050739D01*
X95837736Y-130050733D01*
X95645293Y-129903067D01*
X95645292Y-129903066D01*
X95645289Y-129903064D01*
X95435212Y-129781776D01*
X95435205Y-129781773D01*
X95211104Y-129688947D01*
X94976785Y-129626161D01*
X94736289Y-129594500D01*
X94736288Y-129594500D01*
X94493712Y-129594500D01*
X94493711Y-129594500D01*
X94253214Y-129626161D01*
X94018895Y-129688947D01*
X93794794Y-129781773D01*
X93794785Y-129781777D01*
X93584706Y-129903067D01*
X93392263Y-130050733D01*
X93392256Y-130050739D01*
X93220739Y-130222256D01*
X93220733Y-130222263D01*
X93073067Y-130414706D01*
X92951777Y-130624785D01*
X92951773Y-130624794D01*
X92858947Y-130848895D01*
X92796161Y-131083214D01*
X92764500Y-131323711D01*
X91305500Y-131323711D01*
X91305500Y-106585513D01*
X94684500Y-106585513D01*
X94684500Y-106774486D01*
X94714059Y-106961118D01*
X94772454Y-107140836D01*
X94828132Y-107250109D01*
X94858240Y-107309199D01*
X94969310Y-107462073D01*
X95102927Y-107595690D01*
X95255801Y-107706760D01*
X95335347Y-107747290D01*
X95424163Y-107792545D01*
X95424165Y-107792545D01*
X95424168Y-107792547D01*
X95520497Y-107823846D01*
X95603881Y-107850940D01*
X95790514Y-107880500D01*
X95790519Y-107880500D01*
X95979486Y-107880500D01*
X96166118Y-107850940D01*
X96223753Y-107832213D01*
X96345832Y-107792547D01*
X96514199Y-107706760D01*
X96667073Y-107595690D01*
X96800690Y-107462073D01*
X96911760Y-107309199D01*
X96997547Y-107140832D01*
X97055940Y-106961118D01*
X97061214Y-106927820D01*
X97085500Y-106774486D01*
X97085500Y-106585513D01*
X97055940Y-106398881D01*
X96997545Y-106219163D01*
X96911759Y-106050800D01*
X96800690Y-105897927D01*
X96667073Y-105764310D01*
X96514199Y-105653240D01*
X96345836Y-105567454D01*
X96166118Y-105509059D01*
X95979486Y-105479500D01*
X95979481Y-105479500D01*
X95790519Y-105479500D01*
X95790514Y-105479500D01*
X95603881Y-105509059D01*
X95424163Y-105567454D01*
X95255800Y-105653240D01*
X95189260Y-105701585D01*
X95102927Y-105764310D01*
X95102925Y-105764312D01*
X95102924Y-105764312D01*
X94969312Y-105897924D01*
X94969312Y-105897925D01*
X94969310Y-105897927D01*
X94921610Y-105963579D01*
X94858240Y-106050800D01*
X94772454Y-106219163D01*
X94714059Y-106398881D01*
X94684500Y-106585513D01*
X91305500Y-106585513D01*
X91305500Y-97695513D01*
X94684500Y-97695513D01*
X94684500Y-97884486D01*
X94714059Y-98071118D01*
X94772454Y-98250836D01*
X94858240Y-98419199D01*
X94969310Y-98572073D01*
X94969312Y-98572075D01*
X95048181Y-98650944D01*
X95081666Y-98712267D01*
X95084500Y-98738625D01*
X95084500Y-100651375D01*
X95064815Y-100718414D01*
X95048181Y-100739056D01*
X94969312Y-100817924D01*
X94969312Y-100817925D01*
X94969310Y-100817927D01*
X94921610Y-100883579D01*
X94858240Y-100970800D01*
X94772454Y-101139163D01*
X94714059Y-101318881D01*
X94684500Y-101505513D01*
X94684500Y-101694486D01*
X94714059Y-101881118D01*
X94772454Y-102060836D01*
X94858240Y-102229199D01*
X94969310Y-102382073D01*
X95102927Y-102515690D01*
X95255801Y-102626760D01*
X95335347Y-102667290D01*
X95424163Y-102712545D01*
X95424165Y-102712545D01*
X95424168Y-102712547D01*
X95520497Y-102743846D01*
X95603881Y-102770940D01*
X95790514Y-102800500D01*
X95790519Y-102800500D01*
X95979486Y-102800500D01*
X96166118Y-102770940D01*
X96223753Y-102752213D01*
X96345832Y-102712547D01*
X96514199Y-102626760D01*
X96667073Y-102515690D01*
X96800690Y-102382073D01*
X96911760Y-102229199D01*
X96997547Y-102060832D01*
X97055940Y-101881118D01*
X97061214Y-101847820D01*
X97085500Y-101694486D01*
X97085500Y-101505513D01*
X97055940Y-101318881D01*
X96997545Y-101139163D01*
X96911759Y-100970800D01*
X96800690Y-100817927D01*
X96721819Y-100739056D01*
X96688334Y-100677733D01*
X96685500Y-100651375D01*
X96685500Y-98738625D01*
X96705185Y-98671586D01*
X96721819Y-98650944D01*
X96800690Y-98572073D01*
X96911760Y-98419199D01*
X96997547Y-98250832D01*
X97055940Y-98071118D01*
X97076921Y-97938643D01*
X97106848Y-97875513D01*
X97111694Y-97870382D01*
X98785034Y-96197042D01*
X98846355Y-96163559D01*
X98916047Y-96168543D01*
X98971980Y-96210415D01*
X98995186Y-96265327D01*
X99005151Y-96328243D01*
X99012754Y-96376243D01*
X99074146Y-96565188D01*
X99078444Y-96578414D01*
X99174951Y-96767820D01*
X99299890Y-96939786D01*
X99450213Y-97090109D01*
X99622182Y-97215050D01*
X99630946Y-97219516D01*
X99681742Y-97267491D01*
X99698536Y-97335312D01*
X99675998Y-97401447D01*
X99630946Y-97440484D01*
X99622182Y-97444949D01*
X99450213Y-97569890D01*
X99299890Y-97720213D01*
X99174951Y-97892179D01*
X99078444Y-98081585D01*
X99012753Y-98283760D01*
X98979500Y-98493713D01*
X98979500Y-98706287D01*
X99012754Y-98916243D01*
X99062847Y-99070414D01*
X99078444Y-99118414D01*
X99174951Y-99307820D01*
X99299890Y-99479786D01*
X99450213Y-99630109D01*
X99622182Y-99755050D01*
X99630946Y-99759516D01*
X99681742Y-99807491D01*
X99698536Y-99875312D01*
X99675998Y-99941447D01*
X99630946Y-99980484D01*
X99622182Y-99984949D01*
X99450213Y-100109890D01*
X99299890Y-100260213D01*
X99174951Y-100432179D01*
X99078444Y-100621585D01*
X99012753Y-100823760D01*
X98979500Y-101033713D01*
X98979500Y-101246287D01*
X99012754Y-101456243D01*
X99062847Y-101610414D01*
X99078444Y-101658414D01*
X99174951Y-101847820D01*
X99299890Y-102019786D01*
X99450213Y-102170109D01*
X99622182Y-102295050D01*
X99630946Y-102299516D01*
X99681742Y-102347491D01*
X99698536Y-102415312D01*
X99675998Y-102481447D01*
X99630946Y-102520484D01*
X99622182Y-102524949D01*
X99450213Y-102649890D01*
X99299890Y-102800213D01*
X99174951Y-102972179D01*
X99078444Y-103161585D01*
X99012753Y-103363760D01*
X98979500Y-103573713D01*
X98979500Y-103786287D01*
X99012754Y-103996243D01*
X99062847Y-104150414D01*
X99078444Y-104198414D01*
X99174951Y-104387820D01*
X99299890Y-104559786D01*
X99450213Y-104710109D01*
X99622182Y-104835050D01*
X99630946Y-104839516D01*
X99681742Y-104887491D01*
X99698536Y-104955312D01*
X99675998Y-105021447D01*
X99630946Y-105060484D01*
X99622182Y-105064949D01*
X99450213Y-105189890D01*
X99299890Y-105340213D01*
X99174951Y-105512179D01*
X99078444Y-105701585D01*
X99012753Y-105903760D01*
X98979500Y-106113713D01*
X98979500Y-106326287D01*
X99012754Y-106536243D01*
X99062847Y-106690414D01*
X99078444Y-106738414D01*
X99174951Y-106927820D01*
X99299890Y-107099786D01*
X99450213Y-107250109D01*
X99622182Y-107375050D01*
X99630946Y-107379516D01*
X99681742Y-107427491D01*
X99698536Y-107495312D01*
X99675998Y-107561447D01*
X99630946Y-107600484D01*
X99622182Y-107604949D01*
X99450213Y-107729890D01*
X99299890Y-107880213D01*
X99174951Y-108052179D01*
X99078444Y-108241585D01*
X99012753Y-108443760D01*
X98979500Y-108653713D01*
X98979500Y-108866287D01*
X99012754Y-109076243D01*
X99062847Y-109230414D01*
X99078444Y-109278414D01*
X99174951Y-109467820D01*
X99299890Y-109639786D01*
X99450213Y-109790109D01*
X99622182Y-109915050D01*
X99630946Y-109919516D01*
X99681742Y-109967491D01*
X99698536Y-110035312D01*
X99675998Y-110101447D01*
X99630946Y-110140484D01*
X99622182Y-110144949D01*
X99450213Y-110269890D01*
X99299890Y-110420213D01*
X99174951Y-110592179D01*
X99078444Y-110781585D01*
X99012753Y-110983760D01*
X98979500Y-111193713D01*
X98979500Y-111406287D01*
X99012754Y-111616243D01*
X99062847Y-111770414D01*
X99078444Y-111818414D01*
X99174951Y-112007820D01*
X99299890Y-112179786D01*
X99450213Y-112330109D01*
X99622182Y-112455050D01*
X99630946Y-112459516D01*
X99681742Y-112507491D01*
X99698536Y-112575312D01*
X99675998Y-112641447D01*
X99630946Y-112680484D01*
X99622182Y-112684949D01*
X99450213Y-112809890D01*
X99299890Y-112960213D01*
X99174951Y-113132179D01*
X99078444Y-113321585D01*
X99012753Y-113523760D01*
X98979500Y-113733713D01*
X98979500Y-113946287D01*
X99012754Y-114156243D01*
X99062847Y-114310414D01*
X99078444Y-114358414D01*
X99174951Y-114547820D01*
X99299890Y-114719786D01*
X99450213Y-114870109D01*
X99622182Y-114995050D01*
X99630946Y-114999516D01*
X99681742Y-115047491D01*
X99698536Y-115115312D01*
X99675998Y-115181447D01*
X99630946Y-115220484D01*
X99622182Y-115224949D01*
X99450213Y-115349890D01*
X99299890Y-115500213D01*
X99174951Y-115672179D01*
X99078444Y-115861585D01*
X99012753Y-116063760D01*
X98979500Y-116273713D01*
X98979500Y-116486287D01*
X99012754Y-116696243D01*
X99062847Y-116850414D01*
X99078444Y-116898414D01*
X99174951Y-117087820D01*
X99299890Y-117259786D01*
X99450213Y-117410109D01*
X99622182Y-117535050D01*
X99630946Y-117539516D01*
X99681742Y-117587491D01*
X99698536Y-117655312D01*
X99675998Y-117721447D01*
X99630946Y-117760484D01*
X99622182Y-117764949D01*
X99450213Y-117889890D01*
X99299890Y-118040213D01*
X99174951Y-118212179D01*
X99078444Y-118401585D01*
X99012753Y-118603760D01*
X98979500Y-118813713D01*
X98979500Y-119026287D01*
X99012754Y-119236243D01*
X99062847Y-119390414D01*
X99078444Y-119438414D01*
X99174951Y-119627820D01*
X99299890Y-119799786D01*
X99450213Y-119950109D01*
X99622182Y-120075050D01*
X99630946Y-120079516D01*
X99681742Y-120127491D01*
X99698536Y-120195312D01*
X99675998Y-120261447D01*
X99630946Y-120300484D01*
X99622182Y-120304949D01*
X99450213Y-120429890D01*
X99299890Y-120580213D01*
X99174951Y-120752179D01*
X99078444Y-120941585D01*
X99012753Y-121143760D01*
X99000835Y-121219007D01*
X98979500Y-121353713D01*
X98979500Y-121566287D01*
X98989534Y-121629644D01*
X99003688Y-121719007D01*
X99012754Y-121776243D01*
X99056864Y-121912000D01*
X99078444Y-121978414D01*
X99174951Y-122167820D01*
X99299890Y-122339786D01*
X99450213Y-122490109D01*
X99622179Y-122615048D01*
X99622181Y-122615049D01*
X99622184Y-122615051D01*
X99811588Y-122711557D01*
X100013757Y-122777246D01*
X100223713Y-122810500D01*
X100223714Y-122810500D01*
X100436285Y-122810500D01*
X100436287Y-122810500D01*
X100470686Y-122805051D01*
X100539977Y-122814005D01*
X100577765Y-122839843D01*
X104288211Y-126550289D01*
X104399711Y-126661789D01*
X104399712Y-126661790D01*
X104530814Y-126749390D01*
X104530821Y-126749394D01*
X104641673Y-126795310D01*
X104676503Y-126809737D01*
X104831153Y-126840499D01*
X104831156Y-126840500D01*
X104831158Y-126840500D01*
X104988842Y-126840500D01*
X107650500Y-126840500D01*
X107717539Y-126860185D01*
X107763294Y-126912989D01*
X107774500Y-126964500D01*
X107774500Y-127204697D01*
X107777356Y-127240991D01*
X107777357Y-127240997D01*
X107822504Y-127396390D01*
X107822505Y-127396393D01*
X107904881Y-127535684D01*
X107904887Y-127535692D01*
X107948180Y-127578984D01*
X107962884Y-127605912D01*
X107979477Y-127631731D01*
X107980368Y-127637930D01*
X107981666Y-127640307D01*
X107984500Y-127666666D01*
X107984500Y-127690234D01*
X107964815Y-127757273D01*
X107963602Y-127759125D01*
X107875609Y-127890814D01*
X107875602Y-127890827D01*
X107815264Y-128036498D01*
X107815261Y-128036510D01*
X107784500Y-128191153D01*
X107784500Y-128348846D01*
X107815261Y-128503489D01*
X107815264Y-128503501D01*
X107875602Y-128649172D01*
X107875609Y-128649185D01*
X107963210Y-128780288D01*
X107963213Y-128780292D01*
X108074707Y-128891786D01*
X108074711Y-128891789D01*
X108205814Y-128979390D01*
X108205827Y-128979397D01*
X108351498Y-129039735D01*
X108351503Y-129039737D01*
X108506153Y-129070499D01*
X108506156Y-129070500D01*
X108506158Y-129070500D01*
X108663844Y-129070500D01*
X108663845Y-129070499D01*
X108818497Y-129039737D01*
X108964179Y-128979394D01*
X109095289Y-128891789D01*
X109206789Y-128780289D01*
X109294394Y-128649179D01*
X109354737Y-128503497D01*
X109385500Y-128348842D01*
X109385500Y-128191158D01*
X109385500Y-128191155D01*
X109385499Y-128191153D01*
X109354738Y-128036510D01*
X109354737Y-128036503D01*
X109354735Y-128036498D01*
X109294397Y-127890827D01*
X109294390Y-127890814D01*
X109206398Y-127759125D01*
X109200747Y-127741078D01*
X109190523Y-127725169D01*
X109186071Y-127694207D01*
X109185520Y-127692447D01*
X109185500Y-127690234D01*
X109185500Y-127666666D01*
X109205185Y-127599627D01*
X109221820Y-127578984D01*
X109265112Y-127535692D01*
X109265117Y-127535687D01*
X109347494Y-127396395D01*
X109386286Y-127262873D01*
X109392642Y-127240997D01*
X109392643Y-127240991D01*
X109394010Y-127223618D01*
X109395500Y-127204690D01*
X109395500Y-126964500D01*
X109415185Y-126897461D01*
X109467989Y-126851706D01*
X109519500Y-126840500D01*
X110190500Y-126840500D01*
X110257539Y-126860185D01*
X110303294Y-126912989D01*
X110314500Y-126964500D01*
X110314500Y-127204697D01*
X110317356Y-127240991D01*
X110317357Y-127240997D01*
X110362504Y-127396390D01*
X110362505Y-127396393D01*
X110444881Y-127535684D01*
X110444887Y-127535692D01*
X110488180Y-127578984D01*
X110502884Y-127605912D01*
X110519477Y-127631731D01*
X110520368Y-127637930D01*
X110521666Y-127640307D01*
X110524500Y-127666666D01*
X110524500Y-127690234D01*
X110504815Y-127757273D01*
X110503602Y-127759125D01*
X110415609Y-127890814D01*
X110415602Y-127890827D01*
X110355264Y-128036498D01*
X110355261Y-128036510D01*
X110324500Y-128191153D01*
X110324500Y-128348846D01*
X110355261Y-128503489D01*
X110355264Y-128503501D01*
X110415602Y-128649172D01*
X110415609Y-128649185D01*
X110503210Y-128780288D01*
X110503213Y-128780292D01*
X110614707Y-128891786D01*
X110614711Y-128891789D01*
X110745814Y-128979390D01*
X110745827Y-128979397D01*
X110891498Y-129039735D01*
X110891503Y-129039737D01*
X111046153Y-129070499D01*
X111046156Y-129070500D01*
X111046158Y-129070500D01*
X111203844Y-129070500D01*
X111203845Y-129070499D01*
X111358497Y-129039737D01*
X111504179Y-128979394D01*
X111635289Y-128891789D01*
X111746789Y-128780289D01*
X111834394Y-128649179D01*
X111894737Y-128503497D01*
X111925500Y-128348842D01*
X111925500Y-128191158D01*
X111925500Y-128191155D01*
X111925499Y-128191153D01*
X111894738Y-128036510D01*
X111894737Y-128036503D01*
X111894735Y-128036498D01*
X111834397Y-127890827D01*
X111834390Y-127890814D01*
X111746398Y-127759125D01*
X111740747Y-127741078D01*
X111730523Y-127725169D01*
X111726071Y-127694207D01*
X111725520Y-127692447D01*
X111725500Y-127690234D01*
X111725500Y-127666666D01*
X111745185Y-127599627D01*
X111761820Y-127578984D01*
X111805112Y-127535692D01*
X111805117Y-127535687D01*
X111887494Y-127396395D01*
X111926286Y-127262873D01*
X111932642Y-127240997D01*
X111932643Y-127240991D01*
X111934010Y-127223618D01*
X111935500Y-127204690D01*
X111935500Y-126964500D01*
X111955185Y-126897461D01*
X112007989Y-126851706D01*
X112059500Y-126840500D01*
X112730500Y-126840500D01*
X112797539Y-126860185D01*
X112843294Y-126912989D01*
X112854500Y-126964500D01*
X112854500Y-127204697D01*
X112857356Y-127240991D01*
X112857357Y-127240997D01*
X112902504Y-127396390D01*
X112902505Y-127396393D01*
X112984881Y-127535684D01*
X112984887Y-127535692D01*
X113028180Y-127578984D01*
X113042884Y-127605912D01*
X113059477Y-127631731D01*
X113060368Y-127637930D01*
X113061666Y-127640307D01*
X113064500Y-127666666D01*
X113064500Y-127690234D01*
X113044815Y-127757273D01*
X113043602Y-127759125D01*
X112955609Y-127890814D01*
X112955602Y-127890827D01*
X112895264Y-128036498D01*
X112895261Y-128036510D01*
X112864500Y-128191153D01*
X112864500Y-128348846D01*
X112895261Y-128503489D01*
X112895264Y-128503501D01*
X112955602Y-128649172D01*
X112955609Y-128649185D01*
X113043210Y-128780288D01*
X113043213Y-128780292D01*
X113154707Y-128891786D01*
X113154711Y-128891789D01*
X113285814Y-128979390D01*
X113285827Y-128979397D01*
X113431498Y-129039735D01*
X113431503Y-129039737D01*
X113586153Y-129070499D01*
X113586156Y-129070500D01*
X113586158Y-129070500D01*
X113743844Y-129070500D01*
X113743845Y-129070499D01*
X113898497Y-129039737D01*
X114044179Y-128979394D01*
X114175289Y-128891789D01*
X114286789Y-128780289D01*
X114374394Y-128649179D01*
X114434737Y-128503497D01*
X114465500Y-128348842D01*
X114465500Y-128191158D01*
X114465500Y-128191155D01*
X114465499Y-128191153D01*
X114434738Y-128036510D01*
X114434737Y-128036503D01*
X114434735Y-128036498D01*
X114374397Y-127890827D01*
X114374390Y-127890814D01*
X114286398Y-127759125D01*
X114280747Y-127741078D01*
X114270523Y-127725169D01*
X114266071Y-127694207D01*
X114265520Y-127692447D01*
X114265500Y-127690234D01*
X114265500Y-127666666D01*
X114285185Y-127599627D01*
X114301820Y-127578984D01*
X114345112Y-127535692D01*
X114345117Y-127535687D01*
X114427494Y-127396395D01*
X114466286Y-127262873D01*
X114472642Y-127240997D01*
X114472643Y-127240991D01*
X114474010Y-127223618D01*
X114475500Y-127204690D01*
X114475500Y-126964500D01*
X114495185Y-126897461D01*
X114547989Y-126851706D01*
X114599500Y-126840500D01*
X115270500Y-126840500D01*
X115337539Y-126860185D01*
X115383294Y-126912989D01*
X115394500Y-126964500D01*
X115394500Y-127204697D01*
X115397356Y-127240991D01*
X115397357Y-127240997D01*
X115442504Y-127396390D01*
X115442505Y-127396393D01*
X115524881Y-127535684D01*
X115524887Y-127535692D01*
X115568180Y-127578984D01*
X115582884Y-127605912D01*
X115599477Y-127631731D01*
X115600368Y-127637930D01*
X115601666Y-127640307D01*
X115604500Y-127666666D01*
X115604500Y-127690234D01*
X115584815Y-127757273D01*
X115583602Y-127759125D01*
X115495609Y-127890814D01*
X115495602Y-127890827D01*
X115435264Y-128036498D01*
X115435261Y-128036510D01*
X115404500Y-128191153D01*
X115404500Y-128348846D01*
X115435261Y-128503489D01*
X115435264Y-128503501D01*
X115495602Y-128649172D01*
X115495609Y-128649185D01*
X115583210Y-128780288D01*
X115583213Y-128780292D01*
X115694707Y-128891786D01*
X115694711Y-128891789D01*
X115825814Y-128979390D01*
X115825827Y-128979397D01*
X115971498Y-129039735D01*
X115971503Y-129039737D01*
X116126153Y-129070499D01*
X116126156Y-129070500D01*
X116126158Y-129070500D01*
X116283844Y-129070500D01*
X116283845Y-129070499D01*
X116438497Y-129039737D01*
X116584179Y-128979394D01*
X116715289Y-128891789D01*
X116826789Y-128780289D01*
X116914394Y-128649179D01*
X116974737Y-128503497D01*
X117005500Y-128348842D01*
X117005500Y-128191158D01*
X117005500Y-128191155D01*
X117005499Y-128191153D01*
X116974738Y-128036510D01*
X116974737Y-128036503D01*
X116974735Y-128036498D01*
X116914397Y-127890827D01*
X116914390Y-127890814D01*
X116826398Y-127759125D01*
X116820747Y-127741078D01*
X116810523Y-127725169D01*
X116806071Y-127694207D01*
X116805520Y-127692447D01*
X116805500Y-127690234D01*
X116805500Y-127666666D01*
X116825185Y-127599627D01*
X116841820Y-127578984D01*
X116885112Y-127535692D01*
X116885117Y-127535687D01*
X116967494Y-127396395D01*
X117000583Y-127282504D01*
X117038189Y-127223618D01*
X117101661Y-127194412D01*
X117170848Y-127204158D01*
X117207340Y-127229418D01*
X120663211Y-130685289D01*
X120774711Y-130796789D01*
X120774712Y-130796790D01*
X120905814Y-130884390D01*
X120905827Y-130884397D01*
X121051498Y-130944735D01*
X121051503Y-130944737D01*
X121206153Y-130975499D01*
X121206156Y-130975500D01*
X121206158Y-130975500D01*
X129024106Y-130975500D01*
X129091145Y-130995185D01*
X129124422Y-131026612D01*
X129144896Y-131054792D01*
X129144898Y-131054794D01*
X129295213Y-131205109D01*
X129467179Y-131330048D01*
X129467181Y-131330049D01*
X129467184Y-131330051D01*
X129656588Y-131426557D01*
X129858757Y-131492246D01*
X130068713Y-131525500D01*
X130068714Y-131525500D01*
X130281286Y-131525500D01*
X130281287Y-131525500D01*
X130491243Y-131492246D01*
X130693412Y-131426557D01*
X130882816Y-131330051D01*
X131054792Y-131205104D01*
X131168329Y-131091566D01*
X131229648Y-131058084D01*
X131299340Y-131063068D01*
X131355274Y-131104939D01*
X131372189Y-131135917D01*
X131421202Y-131267328D01*
X131421206Y-131267335D01*
X131507452Y-131382544D01*
X131507455Y-131382547D01*
X131622664Y-131468793D01*
X131622671Y-131468797D01*
X131757517Y-131519091D01*
X131757516Y-131519091D01*
X131764444Y-131519835D01*
X131817127Y-131525500D01*
X133612872Y-131525499D01*
X133672483Y-131519091D01*
X133807331Y-131468796D01*
X133922546Y-131382546D01*
X133966590Y-131323711D01*
X137849500Y-131323711D01*
X137849500Y-131566288D01*
X137881161Y-131806785D01*
X137943947Y-132041104D01*
X137984645Y-132139357D01*
X138036776Y-132265212D01*
X138158064Y-132475289D01*
X138158066Y-132475292D01*
X138158067Y-132475293D01*
X138305733Y-132667736D01*
X138305739Y-132667743D01*
X138477256Y-132839260D01*
X138477262Y-132839265D01*
X138669711Y-132986936D01*
X138879788Y-133108224D01*
X139103900Y-133201054D01*
X139338211Y-133263838D01*
X139518586Y-133287584D01*
X139578711Y-133295500D01*
X139578712Y-133295500D01*
X139821289Y-133295500D01*
X139869388Y-133289167D01*
X140061789Y-133263838D01*
X140296100Y-133201054D01*
X140520212Y-133108224D01*
X140730289Y-132986936D01*
X140922738Y-132839265D01*
X141094265Y-132667738D01*
X141241936Y-132475289D01*
X141363224Y-132265212D01*
X141456054Y-132041100D01*
X141518838Y-131806789D01*
X141550500Y-131566288D01*
X141550500Y-131323712D01*
X141518838Y-131083211D01*
X141456054Y-130848900D01*
X141363224Y-130624788D01*
X141241936Y-130414711D01*
X141094265Y-130222262D01*
X141094260Y-130222256D01*
X140922743Y-130050739D01*
X140922736Y-130050733D01*
X140730293Y-129903067D01*
X140730292Y-129903066D01*
X140730289Y-129903064D01*
X140520212Y-129781776D01*
X140520205Y-129781773D01*
X140296104Y-129688947D01*
X140061785Y-129626161D01*
X139821289Y-129594500D01*
X139821288Y-129594500D01*
X139578712Y-129594500D01*
X139578711Y-129594500D01*
X139338214Y-129626161D01*
X139103895Y-129688947D01*
X138879794Y-129781773D01*
X138879785Y-129781777D01*
X138669706Y-129903067D01*
X138477263Y-130050733D01*
X138477256Y-130050739D01*
X138305739Y-130222256D01*
X138305733Y-130222263D01*
X138158067Y-130414706D01*
X138036777Y-130624785D01*
X138036773Y-130624794D01*
X137943947Y-130848895D01*
X137881161Y-131083214D01*
X137849500Y-131323711D01*
X133966590Y-131323711D01*
X134008796Y-131267331D01*
X134059091Y-131132483D01*
X134065500Y-131072873D01*
X134065499Y-129277128D01*
X134059091Y-129217517D01*
X134057810Y-129214083D01*
X134008797Y-129082671D01*
X134008793Y-129082664D01*
X133922547Y-128967455D01*
X133922544Y-128967452D01*
X133807335Y-128881206D01*
X133807328Y-128881202D01*
X133672483Y-128830908D01*
X133626243Y-128825937D01*
X133561693Y-128799199D01*
X133521845Y-128741806D01*
X133515500Y-128702648D01*
X133515500Y-127515893D01*
X133524689Y-127484595D01*
X133532658Y-127452958D01*
X133534611Y-127450807D01*
X133535185Y-127448854D01*
X133554717Y-127425407D01*
X133560358Y-127420120D01*
X133594792Y-127395104D01*
X133709764Y-127280131D01*
X133711224Y-127278764D01*
X133740671Y-127263906D01*
X133769648Y-127248084D01*
X133771735Y-127248233D01*
X133773603Y-127247291D01*
X133806419Y-127250713D01*
X133839340Y-127253068D01*
X133841015Y-127254321D01*
X133843096Y-127254539D01*
X133868852Y-127275160D01*
X133895274Y-127294939D01*
X133896608Y-127297382D01*
X133897638Y-127298207D01*
X133898567Y-127300971D01*
X133912189Y-127325917D01*
X133961202Y-127457328D01*
X133961206Y-127457335D01*
X134047452Y-127572544D01*
X134047455Y-127572547D01*
X134162664Y-127658793D01*
X134162671Y-127658797D01*
X134297517Y-127709091D01*
X134297516Y-127709091D01*
X134304444Y-127709835D01*
X134357127Y-127715500D01*
X136152872Y-127715499D01*
X136212483Y-127709091D01*
X136347331Y-127658796D01*
X136462546Y-127572546D01*
X136548796Y-127457331D01*
X136599091Y-127322483D01*
X136605500Y-127262873D01*
X136605499Y-125467128D01*
X136599091Y-125407517D01*
X136597810Y-125404083D01*
X136548797Y-125272671D01*
X136548793Y-125272664D01*
X136462547Y-125157455D01*
X136462544Y-125157452D01*
X136347335Y-125071206D01*
X136347328Y-125071202D01*
X136212482Y-125020908D01*
X136212483Y-125020908D01*
X136152883Y-125014501D01*
X136152881Y-125014500D01*
X136152873Y-125014500D01*
X136152864Y-125014500D01*
X134357129Y-125014500D01*
X134357123Y-125014501D01*
X134297516Y-125020908D01*
X134162671Y-125071202D01*
X134162664Y-125071206D01*
X134047455Y-125157452D01*
X134047452Y-125157455D01*
X133961206Y-125272664D01*
X133961203Y-125272669D01*
X133912189Y-125404083D01*
X133870317Y-125460016D01*
X133804853Y-125484433D01*
X133736580Y-125469581D01*
X133708326Y-125448430D01*
X133594786Y-125334890D01*
X133422820Y-125209951D01*
X133233414Y-125113444D01*
X133233413Y-125113443D01*
X133233412Y-125113443D01*
X133031243Y-125047754D01*
X133031241Y-125047753D01*
X133031240Y-125047753D01*
X132869957Y-125022208D01*
X132821287Y-125014500D01*
X132608713Y-125014500D01*
X132560042Y-125022208D01*
X132398760Y-125047753D01*
X132196585Y-125113444D01*
X132007179Y-125209951D01*
X131835213Y-125334890D01*
X131684890Y-125485213D01*
X131559949Y-125657182D01*
X131555484Y-125665946D01*
X131507509Y-125716742D01*
X131439688Y-125733536D01*
X131373553Y-125710998D01*
X131334516Y-125665946D01*
X131330050Y-125657182D01*
X131205109Y-125485213D01*
X131054786Y-125334890D01*
X130882820Y-125209951D01*
X130693414Y-125113444D01*
X130693413Y-125113443D01*
X130693412Y-125113443D01*
X130491243Y-125047754D01*
X130491241Y-125047753D01*
X130491240Y-125047753D01*
X130329957Y-125022208D01*
X130281287Y-125014500D01*
X130068713Y-125014500D01*
X130020042Y-125022208D01*
X129858760Y-125047753D01*
X129656585Y-125113444D01*
X129467179Y-125209951D01*
X129295213Y-125334890D01*
X129144898Y-125485205D01*
X129144898Y-125485206D01*
X129144896Y-125485208D01*
X129124422Y-125513386D01*
X129069094Y-125556051D01*
X129024106Y-125564500D01*
X125477940Y-125564500D01*
X125410901Y-125544815D01*
X125390259Y-125528181D01*
X122121819Y-122259741D01*
X122088334Y-122198418D01*
X122085500Y-122172060D01*
X122085500Y-115444940D01*
X122105185Y-115377901D01*
X122121819Y-115357259D01*
X122807292Y-114671786D01*
X123550034Y-113929043D01*
X123611355Y-113895560D01*
X123681047Y-113900544D01*
X123736980Y-113942416D01*
X123760186Y-113997327D01*
X123777753Y-114108240D01*
X123843444Y-114310414D01*
X123939951Y-114499820D01*
X124064890Y-114671786D01*
X124215213Y-114822109D01*
X124387182Y-114947050D01*
X124395946Y-114951516D01*
X124446742Y-114999491D01*
X124463536Y-115067312D01*
X124440998Y-115133447D01*
X124395946Y-115172484D01*
X124387182Y-115176949D01*
X124215213Y-115301890D01*
X124064890Y-115452213D01*
X123939951Y-115624179D01*
X123843444Y-115813585D01*
X123777753Y-116015760D01*
X123770151Y-116063757D01*
X123744500Y-116225713D01*
X123744500Y-116438287D01*
X123777754Y-116648243D01*
X123793350Y-116696243D01*
X123843444Y-116850414D01*
X123939951Y-117039820D01*
X124064890Y-117211786D01*
X124215213Y-117362109D01*
X124387182Y-117487050D01*
X124395946Y-117491516D01*
X124446742Y-117539491D01*
X124463536Y-117607312D01*
X124440998Y-117673447D01*
X124395946Y-117712484D01*
X124387182Y-117716949D01*
X124215213Y-117841890D01*
X124064890Y-117992213D01*
X123939951Y-118164179D01*
X123843444Y-118353585D01*
X123777753Y-118555760D01*
X123770151Y-118603757D01*
X123744500Y-118765713D01*
X123744500Y-118978287D01*
X123777754Y-119188243D01*
X123793350Y-119236243D01*
X123843444Y-119390414D01*
X123939951Y-119579820D01*
X124064890Y-119751786D01*
X124178818Y-119865714D01*
X124212303Y-119927037D01*
X124207319Y-119996729D01*
X124165447Y-120052662D01*
X124134471Y-120069577D01*
X124002912Y-120118646D01*
X124002906Y-120118649D01*
X123887812Y-120204809D01*
X123887809Y-120204812D01*
X123801649Y-120319906D01*
X123801645Y-120319913D01*
X123751403Y-120454620D01*
X123751401Y-120454627D01*
X123745000Y-120514155D01*
X123745000Y-121162000D01*
X124661988Y-121162000D01*
X124629075Y-121219007D01*
X124595000Y-121346174D01*
X124595000Y-121477826D01*
X124629075Y-121604993D01*
X124661988Y-121662000D01*
X123745000Y-121662000D01*
X123745000Y-122309844D01*
X123751401Y-122369372D01*
X123751403Y-122369379D01*
X123801645Y-122504086D01*
X123801649Y-122504093D01*
X123887809Y-122619187D01*
X123887812Y-122619190D01*
X124002906Y-122705350D01*
X124002913Y-122705354D01*
X124137620Y-122755596D01*
X124137627Y-122755598D01*
X124197155Y-122761999D01*
X124197172Y-122762000D01*
X124845000Y-122762000D01*
X124845000Y-121845012D01*
X124902007Y-121877925D01*
X125029174Y-121912000D01*
X125160826Y-121912000D01*
X125287993Y-121877925D01*
X125345000Y-121845012D01*
X125345000Y-122762000D01*
X125992828Y-122762000D01*
X125992844Y-122761999D01*
X126052372Y-122755598D01*
X126052379Y-122755596D01*
X126187086Y-122705354D01*
X126187093Y-122705350D01*
X126302187Y-122619190D01*
X126302190Y-122619187D01*
X126388350Y-122504093D01*
X126388354Y-122504086D01*
X126438596Y-122369379D01*
X126438598Y-122369372D01*
X126444999Y-122309844D01*
X126445000Y-122309827D01*
X126445000Y-121662000D01*
X125528012Y-121662000D01*
X125560925Y-121604993D01*
X125595000Y-121477826D01*
X125595000Y-121346174D01*
X125560925Y-121219007D01*
X125528012Y-121162000D01*
X126445000Y-121162000D01*
X126445000Y-120514172D01*
X126444999Y-120514155D01*
X126438598Y-120454627D01*
X126438596Y-120454620D01*
X126388354Y-120319913D01*
X126388350Y-120319906D01*
X126302190Y-120204812D01*
X126302187Y-120204809D01*
X126187093Y-120118649D01*
X126187088Y-120118646D01*
X126055528Y-120069577D01*
X125999595Y-120027705D01*
X125975178Y-119962241D01*
X125990030Y-119893968D01*
X126011175Y-119865720D01*
X126125104Y-119751792D01*
X126250051Y-119579816D01*
X126346557Y-119390412D01*
X126412246Y-119188243D01*
X126445500Y-118978287D01*
X126445500Y-118765713D01*
X126412246Y-118555757D01*
X126346557Y-118353588D01*
X126250051Y-118164184D01*
X126250049Y-118164181D01*
X126250048Y-118164179D01*
X126125109Y-117992213D01*
X125974786Y-117841890D01*
X125802820Y-117716951D01*
X125802115Y-117716591D01*
X125794054Y-117712485D01*
X125743259Y-117664512D01*
X125726463Y-117596692D01*
X125748999Y-117530556D01*
X125794054Y-117491515D01*
X125802816Y-117487051D01*
X125824789Y-117471086D01*
X125974786Y-117362109D01*
X125974788Y-117362106D01*
X125974792Y-117362104D01*
X126125104Y-117211792D01*
X126125106Y-117211788D01*
X126125109Y-117211786D01*
X126250048Y-117039820D01*
X126250047Y-117039820D01*
X126250051Y-117039816D01*
X126346557Y-116850412D01*
X126412246Y-116648243D01*
X126445500Y-116438287D01*
X126445500Y-116225713D01*
X126412246Y-116015757D01*
X126346557Y-115813588D01*
X126250051Y-115624184D01*
X126250049Y-115624181D01*
X126250048Y-115624179D01*
X126125109Y-115452213D01*
X125974786Y-115301890D01*
X125802820Y-115176951D01*
X125794810Y-115172870D01*
X125794054Y-115172485D01*
X125743259Y-115124512D01*
X125726463Y-115056692D01*
X125748999Y-114990556D01*
X125794054Y-114951515D01*
X125802816Y-114947051D01*
X125859441Y-114905911D01*
X125974786Y-114822109D01*
X125974788Y-114822106D01*
X125974792Y-114822104D01*
X126125104Y-114671792D01*
X126125106Y-114671788D01*
X126125109Y-114671786D01*
X126250048Y-114499820D01*
X126250047Y-114499820D01*
X126250051Y-114499816D01*
X126346557Y-114310412D01*
X126412246Y-114108243D01*
X126445500Y-113898287D01*
X126445500Y-113685713D01*
X126412246Y-113475757D01*
X126346557Y-113273588D01*
X126250051Y-113084184D01*
X126250049Y-113084181D01*
X126250048Y-113084179D01*
X126125109Y-112912213D01*
X125974786Y-112761890D01*
X125802820Y-112636951D01*
X125802115Y-112636591D01*
X125794054Y-112632485D01*
X125743259Y-112584512D01*
X125726463Y-112516692D01*
X125748999Y-112450556D01*
X125794054Y-112411515D01*
X125802816Y-112407051D01*
X125824789Y-112391086D01*
X125974786Y-112282109D01*
X125974788Y-112282106D01*
X125974792Y-112282104D01*
X126125104Y-112131792D01*
X126125106Y-112131788D01*
X126125109Y-112131786D01*
X126250048Y-111959820D01*
X126250047Y-111959820D01*
X126250051Y-111959816D01*
X126346557Y-111770412D01*
X126412246Y-111568243D01*
X126445500Y-111358287D01*
X126445500Y-111145713D01*
X126412246Y-110935757D01*
X126346557Y-110733588D01*
X126250051Y-110544184D01*
X126250049Y-110544181D01*
X126250048Y-110544179D01*
X126125109Y-110372213D01*
X125974786Y-110221890D01*
X125802820Y-110096951D01*
X125802115Y-110096591D01*
X125794054Y-110092485D01*
X125743259Y-110044512D01*
X125726463Y-109976692D01*
X125748999Y-109910556D01*
X125794054Y-109871515D01*
X125802816Y-109867051D01*
X125824789Y-109851086D01*
X125974786Y-109742109D01*
X125974788Y-109742106D01*
X125974792Y-109742104D01*
X126125104Y-109591792D01*
X126125106Y-109591788D01*
X126125109Y-109591786D01*
X126250048Y-109419820D01*
X126250047Y-109419820D01*
X126250051Y-109419816D01*
X126346557Y-109230412D01*
X126412246Y-109028243D01*
X126445500Y-108818287D01*
X126445500Y-108605713D01*
X126412246Y-108395757D01*
X126346557Y-108193588D01*
X126250051Y-108004184D01*
X126250049Y-108004181D01*
X126250048Y-108004179D01*
X126125109Y-107832213D01*
X125974786Y-107681890D01*
X125802820Y-107556951D01*
X125802115Y-107556591D01*
X125794054Y-107552485D01*
X125743259Y-107504512D01*
X125726463Y-107436692D01*
X125748999Y-107370556D01*
X125794054Y-107331515D01*
X125802816Y-107327051D01*
X125827387Y-107309199D01*
X125974786Y-107202109D01*
X125974788Y-107202106D01*
X125974792Y-107202104D01*
X126125104Y-107051792D01*
X126125106Y-107051788D01*
X126125109Y-107051786D01*
X126250048Y-106879820D01*
X126250047Y-106879820D01*
X126250051Y-106879816D01*
X126346557Y-106690412D01*
X126412246Y-106488243D01*
X126445500Y-106278287D01*
X126445500Y-106065713D01*
X126412246Y-105855757D01*
X126346557Y-105653588D01*
X126250051Y-105464184D01*
X126250049Y-105464181D01*
X126250048Y-105464179D01*
X126125109Y-105292213D01*
X125974786Y-105141890D01*
X125802820Y-105016951D01*
X125802115Y-105016591D01*
X125794054Y-105012485D01*
X125743259Y-104964512D01*
X125726463Y-104896692D01*
X125748999Y-104830556D01*
X125794054Y-104791515D01*
X125802816Y-104787051D01*
X125824789Y-104771086D01*
X125974786Y-104662109D01*
X125974788Y-104662106D01*
X125974792Y-104662104D01*
X126125104Y-104511792D01*
X126125106Y-104511788D01*
X126125109Y-104511786D01*
X126250048Y-104339820D01*
X126250047Y-104339820D01*
X126250051Y-104339816D01*
X126346557Y-104150412D01*
X126412246Y-103948243D01*
X126445500Y-103738287D01*
X126445500Y-103525713D01*
X126412246Y-103315757D01*
X126346557Y-103113588D01*
X126286133Y-102995000D01*
X128092156Y-102995000D01*
X128132595Y-103134194D01*
X128214261Y-103272285D01*
X128214268Y-103272294D01*
X128327705Y-103385731D01*
X128327714Y-103385738D01*
X128465808Y-103467406D01*
X128465811Y-103467407D01*
X128619871Y-103512166D01*
X128619877Y-103512167D01*
X128655000Y-103514931D01*
X128655000Y-103514930D01*
X129155000Y-103514930D01*
X129190122Y-103512167D01*
X129190128Y-103512166D01*
X129344188Y-103467407D01*
X129344191Y-103467406D01*
X129482285Y-103385738D01*
X129482294Y-103385731D01*
X129595731Y-103272294D01*
X129595738Y-103272285D01*
X129677404Y-103134194D01*
X129717844Y-102995000D01*
X129155000Y-102995000D01*
X129155000Y-103514930D01*
X128655000Y-103514930D01*
X128655000Y-102995000D01*
X128092156Y-102995000D01*
X126286133Y-102995000D01*
X126250051Y-102924184D01*
X126250049Y-102924181D01*
X126250048Y-102924179D01*
X126125109Y-102752213D01*
X125974786Y-102601890D01*
X125802820Y-102476951D01*
X125802115Y-102476591D01*
X125794054Y-102472485D01*
X125743259Y-102424512D01*
X125726463Y-102356692D01*
X125748999Y-102290556D01*
X125794054Y-102251515D01*
X125802816Y-102247051D01*
X125905608Y-102172369D01*
X125974786Y-102122109D01*
X125974788Y-102122106D01*
X125974792Y-102122104D01*
X126125104Y-101971792D01*
X126125106Y-101971788D01*
X126125109Y-101971786D01*
X126250048Y-101799820D01*
X126250047Y-101799820D01*
X126250051Y-101799816D01*
X126346557Y-101610412D01*
X126412246Y-101408243D01*
X126445500Y-101198287D01*
X126445500Y-100985713D01*
X126412246Y-100775757D01*
X126346557Y-100573588D01*
X126250051Y-100384184D01*
X126250049Y-100384181D01*
X126250048Y-100384179D01*
X126125109Y-100212213D01*
X125974786Y-100061890D01*
X125802820Y-99936951D01*
X125802115Y-99936591D01*
X125794054Y-99932485D01*
X125743259Y-99884512D01*
X125726463Y-99816692D01*
X125748999Y-99750556D01*
X125794054Y-99711515D01*
X125802816Y-99707051D01*
X125824789Y-99691086D01*
X125974786Y-99582109D01*
X125974788Y-99582106D01*
X125974792Y-99582104D01*
X126125104Y-99431792D01*
X126125106Y-99431788D01*
X126125109Y-99431786D01*
X126250048Y-99259820D01*
X126250047Y-99259820D01*
X126250051Y-99259816D01*
X126346557Y-99070412D01*
X126412246Y-98868243D01*
X126445500Y-98658287D01*
X126445500Y-98445713D01*
X126412246Y-98235757D01*
X126346557Y-98033588D01*
X126250051Y-97844184D01*
X126250049Y-97844181D01*
X126250048Y-97844179D01*
X126125109Y-97672213D01*
X125974786Y-97521890D01*
X125802820Y-97396951D01*
X125802115Y-97396591D01*
X125794054Y-97392485D01*
X125743259Y-97344512D01*
X125726463Y-97276692D01*
X125748999Y-97210556D01*
X125794054Y-97171515D01*
X125802816Y-97167051D01*
X125824789Y-97151086D01*
X125974786Y-97042109D01*
X125974788Y-97042106D01*
X125974792Y-97042104D01*
X126125104Y-96891792D01*
X126125106Y-96891788D01*
X126125109Y-96891786D01*
X126250048Y-96719820D01*
X126250047Y-96719820D01*
X126250051Y-96719816D01*
X126346557Y-96530412D01*
X126412246Y-96328243D01*
X126445500Y-96118287D01*
X126445500Y-95905713D01*
X126440051Y-95871312D01*
X126449005Y-95802020D01*
X126474840Y-95764236D01*
X127892820Y-94346256D01*
X127954142Y-94312773D01*
X128023834Y-94317757D01*
X128079767Y-94359629D01*
X128104184Y-94425093D01*
X128104500Y-94433939D01*
X128104500Y-101413064D01*
X128099577Y-101447657D01*
X128087336Y-101489792D01*
X128087334Y-101489802D01*
X128084500Y-101525811D01*
X128084500Y-101924169D01*
X128084501Y-101924191D01*
X128087335Y-101960205D01*
X128132129Y-102114388D01*
X128132130Y-102114391D01*
X128166419Y-102172371D01*
X128183601Y-102240095D01*
X128166419Y-102298611D01*
X128132594Y-102355806D01*
X128092156Y-102495000D01*
X128644592Y-102495000D01*
X128647929Y-102495045D01*
X128651133Y-102495131D01*
X128655819Y-102495500D01*
X128664813Y-102495499D01*
X128666465Y-102495544D01*
X128667732Y-102495953D01*
X128687314Y-102497881D01*
X128776842Y-102515690D01*
X128826157Y-102525500D01*
X128826158Y-102525500D01*
X128983844Y-102525500D01*
X129122685Y-102497882D01*
X129143536Y-102495544D01*
X129145206Y-102495499D01*
X129154180Y-102495499D01*
X129158856Y-102495131D01*
X129162052Y-102495045D01*
X129162335Y-102495120D01*
X129165393Y-102495000D01*
X129717844Y-102495000D01*
X129677404Y-102355805D01*
X129643581Y-102298612D01*
X129626398Y-102230888D01*
X129643582Y-102172369D01*
X129677867Y-102114396D01*
X129677869Y-102114393D01*
X129705355Y-102019786D01*
X129722664Y-101960208D01*
X129722664Y-101960206D01*
X129722665Y-101960204D01*
X129725500Y-101924181D01*
X129725499Y-101525820D01*
X129722665Y-101489796D01*
X129710423Y-101447657D01*
X129710423Y-101447656D01*
X129705500Y-101413064D01*
X129705500Y-92974500D01*
X129725185Y-92907461D01*
X129777989Y-92861706D01*
X129829500Y-92850500D01*
X131252649Y-92850500D01*
X131319688Y-92870185D01*
X131365443Y-92922989D01*
X131375939Y-92961248D01*
X131380908Y-93007483D01*
X131431202Y-93142328D01*
X131431206Y-93142335D01*
X131517452Y-93257544D01*
X131517455Y-93257547D01*
X131632664Y-93343793D01*
X131632671Y-93343797D01*
X131767516Y-93394091D01*
X131813757Y-93399063D01*
X131878307Y-93425801D01*
X131918155Y-93483194D01*
X131924500Y-93522352D01*
X131924500Y-96378672D01*
X131922117Y-96402864D01*
X131914500Y-96441156D01*
X131914500Y-112802648D01*
X131894815Y-112869687D01*
X131842011Y-112915442D01*
X131803755Y-112925938D01*
X131757516Y-112930909D01*
X131622671Y-112981202D01*
X131622664Y-112981206D01*
X131507455Y-113067452D01*
X131507452Y-113067455D01*
X131421206Y-113182664D01*
X131421202Y-113182671D01*
X131370908Y-113317517D01*
X131364501Y-113377116D01*
X131364500Y-113377135D01*
X131364500Y-115172870D01*
X131364501Y-115172876D01*
X131370908Y-115232483D01*
X131421202Y-115367328D01*
X131421206Y-115367335D01*
X131507452Y-115482544D01*
X131507455Y-115482547D01*
X131622664Y-115568793D01*
X131622671Y-115568797D01*
X131757517Y-115619091D01*
X131757516Y-115619091D01*
X131764444Y-115619835D01*
X131817127Y-115625500D01*
X133612872Y-115625499D01*
X133672483Y-115619091D01*
X133807331Y-115568796D01*
X133922546Y-115482546D01*
X134008796Y-115367331D01*
X134057810Y-115235916D01*
X134099681Y-115179984D01*
X134165145Y-115155566D01*
X134233418Y-115170417D01*
X134261673Y-115191569D01*
X134375213Y-115305109D01*
X134547179Y-115430048D01*
X134547181Y-115430049D01*
X134547184Y-115430051D01*
X134736588Y-115526557D01*
X134938757Y-115592246D01*
X135148713Y-115625500D01*
X135148714Y-115625500D01*
X135361286Y-115625500D01*
X135361287Y-115625500D01*
X135571243Y-115592246D01*
X135773412Y-115526557D01*
X135962816Y-115430051D01*
X136049138Y-115367335D01*
X136134786Y-115305109D01*
X136134788Y-115305106D01*
X136134792Y-115305104D01*
X136285104Y-115154792D01*
X136285106Y-115154788D01*
X136285109Y-115154786D01*
X136401162Y-114995051D01*
X136410051Y-114982816D01*
X136414514Y-114974054D01*
X136462488Y-114923259D01*
X136530308Y-114906463D01*
X136596444Y-114928999D01*
X136635486Y-114974056D01*
X136639951Y-114982820D01*
X136764890Y-115154786D01*
X136915213Y-115305109D01*
X137087179Y-115430048D01*
X137087181Y-115430049D01*
X137087184Y-115430051D01*
X137276588Y-115526557D01*
X137478757Y-115592246D01*
X137688713Y-115625500D01*
X137688714Y-115625500D01*
X137901286Y-115625500D01*
X137901287Y-115625500D01*
X138111243Y-115592246D01*
X138313412Y-115526557D01*
X138502816Y-115430051D01*
X138589138Y-115367335D01*
X138674786Y-115305109D01*
X138674788Y-115305106D01*
X138674792Y-115305104D01*
X138825104Y-115154792D01*
X138825106Y-115154788D01*
X138825109Y-115154786D01*
X138910890Y-115036717D01*
X138950051Y-114982816D01*
X138954793Y-114973508D01*
X139002763Y-114922711D01*
X139070583Y-114905911D01*
X139136719Y-114928445D01*
X139175763Y-114973500D01*
X139180373Y-114982547D01*
X139219728Y-115036716D01*
X139852037Y-114404408D01*
X139869075Y-114467993D01*
X139934901Y-114582007D01*
X140027993Y-114675099D01*
X140142007Y-114740925D01*
X140205590Y-114757962D01*
X139573282Y-115390269D01*
X139573282Y-115390270D01*
X139627449Y-115429624D01*
X139816782Y-115526095D01*
X140018870Y-115591757D01*
X140228754Y-115625000D01*
X140441246Y-115625000D01*
X140651127Y-115591757D01*
X140651130Y-115591757D01*
X140853217Y-115526095D01*
X141042554Y-115429622D01*
X141096716Y-115390270D01*
X141096717Y-115390270D01*
X140464408Y-114757962D01*
X140527993Y-114740925D01*
X140642007Y-114675099D01*
X140735099Y-114582007D01*
X140800925Y-114467993D01*
X140817962Y-114404408D01*
X141450270Y-115036717D01*
X141450270Y-115036716D01*
X141489622Y-114982554D01*
X141586095Y-114793217D01*
X141651757Y-114591130D01*
X141651757Y-114591127D01*
X141685000Y-114381246D01*
X141685000Y-114168753D01*
X141651757Y-113958872D01*
X141651757Y-113958869D01*
X141586095Y-113756782D01*
X141489624Y-113567449D01*
X141450270Y-113513282D01*
X141450269Y-113513282D01*
X140817962Y-114145590D01*
X140800925Y-114082007D01*
X140735099Y-113967993D01*
X140642007Y-113874901D01*
X140527993Y-113809075D01*
X140464409Y-113792037D01*
X141096716Y-113159728D01*
X141042550Y-113120375D01*
X140853217Y-113023904D01*
X140651129Y-112958242D01*
X140441246Y-112925000D01*
X140228754Y-112925000D01*
X140018872Y-112958242D01*
X140018869Y-112958242D01*
X139816782Y-113023904D01*
X139627439Y-113120380D01*
X139573282Y-113159727D01*
X139573282Y-113159728D01*
X140205591Y-113792037D01*
X140142007Y-113809075D01*
X140027993Y-113874901D01*
X139934901Y-113967993D01*
X139869075Y-114082007D01*
X139852037Y-114145591D01*
X139219728Y-113513282D01*
X139219727Y-113513282D01*
X139180380Y-113567440D01*
X139180376Y-113567446D01*
X139175760Y-113576505D01*
X139127781Y-113627297D01*
X139059959Y-113644087D01*
X138993826Y-113621543D01*
X138954794Y-113576493D01*
X138950051Y-113567184D01*
X138950049Y-113567181D01*
X138950048Y-113567179D01*
X138825109Y-113395213D01*
X138674786Y-113244890D01*
X138502820Y-113119951D01*
X138313414Y-113023444D01*
X138313413Y-113023443D01*
X138313412Y-113023443D01*
X138111243Y-112957754D01*
X138111241Y-112957753D01*
X138111240Y-112957753D01*
X137949957Y-112932208D01*
X137901287Y-112924500D01*
X137688713Y-112924500D01*
X137640042Y-112932208D01*
X137478760Y-112957753D01*
X137276585Y-113023444D01*
X137087179Y-113119951D01*
X136915213Y-113244890D01*
X136764890Y-113395213D01*
X136639949Y-113567182D01*
X136635484Y-113575946D01*
X136587509Y-113626742D01*
X136519688Y-113643536D01*
X136453553Y-113620998D01*
X136414516Y-113575946D01*
X136410050Y-113567182D01*
X136285109Y-113395213D01*
X136134794Y-113244898D01*
X136134792Y-113244896D01*
X136106613Y-113224422D01*
X136063949Y-113169094D01*
X136055500Y-113124106D01*
X136055500Y-96651327D01*
X136057883Y-96627134D01*
X136065500Y-96588844D01*
X136065500Y-93200893D01*
X136085185Y-93133854D01*
X136116614Y-93100576D01*
X136144792Y-93080104D01*
X136295104Y-92929792D01*
X136295106Y-92929788D01*
X136295109Y-92929786D01*
X136420048Y-92757820D01*
X136420047Y-92757820D01*
X136420051Y-92757816D01*
X136424514Y-92749054D01*
X136472488Y-92698259D01*
X136540308Y-92681463D01*
X136606444Y-92703999D01*
X136645484Y-92749054D01*
X136649591Y-92757115D01*
X136649951Y-92757820D01*
X136774890Y-92929786D01*
X136925213Y-93080109D01*
X137097179Y-93205048D01*
X137097181Y-93205049D01*
X137097184Y-93205051D01*
X137286588Y-93301557D01*
X137488757Y-93367246D01*
X137698713Y-93400500D01*
X137698714Y-93400500D01*
X137911286Y-93400500D01*
X137911287Y-93400500D01*
X138121243Y-93367246D01*
X138323412Y-93301557D01*
X138512816Y-93205051D01*
X138567572Y-93165269D01*
X138684786Y-93080109D01*
X138684788Y-93080106D01*
X138684792Y-93080104D01*
X138835104Y-92929792D01*
X138835106Y-92929788D01*
X138835109Y-92929786D01*
X138902515Y-92837007D01*
X138960051Y-92757816D01*
X138964793Y-92748508D01*
X139012763Y-92697711D01*
X139080583Y-92680911D01*
X139146719Y-92703445D01*
X139185763Y-92748500D01*
X139190373Y-92757547D01*
X139229728Y-92811716D01*
X139862037Y-92179408D01*
X139879075Y-92242993D01*
X139944901Y-92357007D01*
X140037993Y-92450099D01*
X140152007Y-92515925D01*
X140215590Y-92532962D01*
X139583282Y-93165269D01*
X139583282Y-93165270D01*
X139637449Y-93204624D01*
X139826782Y-93301095D01*
X140028870Y-93366757D01*
X140238754Y-93400000D01*
X140451246Y-93400000D01*
X140661127Y-93366757D01*
X140661130Y-93366757D01*
X140863217Y-93301095D01*
X141052554Y-93204622D01*
X141106716Y-93165270D01*
X141106717Y-93165270D01*
X140474408Y-92532962D01*
X140537993Y-92515925D01*
X140652007Y-92450099D01*
X140745099Y-92357007D01*
X140810925Y-92242993D01*
X140827962Y-92179408D01*
X141460270Y-92811717D01*
X141460270Y-92811716D01*
X141499622Y-92757554D01*
X141596095Y-92568217D01*
X141661757Y-92366130D01*
X141661757Y-92366127D01*
X141695000Y-92156246D01*
X141695000Y-91943753D01*
X141661757Y-91733872D01*
X141661757Y-91733869D01*
X141596095Y-91531782D01*
X141499624Y-91342449D01*
X141460270Y-91288282D01*
X141460269Y-91288282D01*
X140827962Y-91920590D01*
X140810925Y-91857007D01*
X140745099Y-91742993D01*
X140652007Y-91649901D01*
X140537993Y-91584075D01*
X140474409Y-91567037D01*
X141106716Y-90934728D01*
X141052550Y-90895375D01*
X140863217Y-90798904D01*
X140661129Y-90733242D01*
X140451246Y-90700000D01*
X140238754Y-90700000D01*
X140028872Y-90733242D01*
X140028869Y-90733242D01*
X139826782Y-90798904D01*
X139637439Y-90895380D01*
X139583282Y-90934727D01*
X139583282Y-90934728D01*
X140215591Y-91567037D01*
X140152007Y-91584075D01*
X140037993Y-91649901D01*
X139944901Y-91742993D01*
X139879075Y-91857007D01*
X139862037Y-91920591D01*
X139229728Y-91288282D01*
X139229727Y-91288282D01*
X139190380Y-91342440D01*
X139190376Y-91342446D01*
X139185760Y-91351505D01*
X139137781Y-91402297D01*
X139069959Y-91419087D01*
X139003826Y-91396543D01*
X138964794Y-91351493D01*
X138960051Y-91342184D01*
X138960049Y-91342181D01*
X138960048Y-91342179D01*
X138835109Y-91170213D01*
X138684786Y-91019890D01*
X138512820Y-90894951D01*
X138323414Y-90798444D01*
X138323413Y-90798443D01*
X138323412Y-90798443D01*
X138121243Y-90732754D01*
X138121241Y-90732753D01*
X138121240Y-90732753D01*
X137959957Y-90707208D01*
X137911287Y-90699500D01*
X137698713Y-90699500D01*
X137650042Y-90707208D01*
X137488760Y-90732753D01*
X137286585Y-90798444D01*
X137097179Y-90894951D01*
X136925213Y-91019890D01*
X136774890Y-91170213D01*
X136649949Y-91342182D01*
X136645484Y-91350946D01*
X136597509Y-91401742D01*
X136529688Y-91418536D01*
X136463553Y-91395998D01*
X136424516Y-91350946D01*
X136420050Y-91342182D01*
X136295109Y-91170213D01*
X136144794Y-91019898D01*
X136144792Y-91019896D01*
X136116613Y-90999422D01*
X136114769Y-90997031D01*
X136111976Y-90995884D01*
X136093569Y-90969539D01*
X136073949Y-90944094D01*
X136073168Y-90940338D01*
X136071960Y-90938609D01*
X136068830Y-90919473D01*
X136065592Y-90903894D01*
X136065500Y-90901513D01*
X136065500Y-90736158D01*
X136059483Y-90705909D01*
X136034738Y-90581503D01*
X135974394Y-90435821D01*
X135974392Y-90435818D01*
X135974390Y-90435814D01*
X135886789Y-90304711D01*
X135886786Y-90304707D01*
X135130292Y-89548213D01*
X135130288Y-89548210D01*
X134999185Y-89460609D01*
X134999172Y-89460602D01*
X134853501Y-89400264D01*
X134853489Y-89400261D01*
X134698845Y-89369500D01*
X134698842Y-89369500D01*
X130464500Y-89369500D01*
X130397461Y-89349815D01*
X130351706Y-89297011D01*
X130340500Y-89245500D01*
X130340500Y-86421932D01*
X130345424Y-86387336D01*
X130357665Y-86345204D01*
X130360500Y-86309181D01*
X130360499Y-85910820D01*
X130357665Y-85874796D01*
X130312869Y-85720607D01*
X130278581Y-85662629D01*
X130261398Y-85594905D01*
X130278582Y-85536386D01*
X130312404Y-85479196D01*
X130312405Y-85479194D01*
X130352844Y-85340000D01*
X129800409Y-85340000D01*
X129797066Y-85339955D01*
X129793865Y-85339868D01*
X129789181Y-85339500D01*
X129780197Y-85339500D01*
X129778529Y-85339455D01*
X129777263Y-85339046D01*
X129757681Y-85337117D01*
X129713158Y-85328260D01*
X129618844Y-85309500D01*
X129618842Y-85309500D01*
X129461158Y-85309500D01*
X129322308Y-85337118D01*
X129301468Y-85339455D01*
X129299781Y-85339500D01*
X129290820Y-85339501D01*
X129286144Y-85339868D01*
X129282954Y-85339955D01*
X129282669Y-85339879D01*
X129279606Y-85340000D01*
X128727156Y-85340000D01*
X128767594Y-85479193D01*
X128801419Y-85536388D01*
X128818601Y-85604112D01*
X128801419Y-85662628D01*
X128767130Y-85720607D01*
X128767129Y-85720611D01*
X128722335Y-85874791D01*
X128722334Y-85874797D01*
X128719500Y-85910811D01*
X128719500Y-86309169D01*
X128719501Y-86309191D01*
X128722098Y-86342202D01*
X128722335Y-86345204D01*
X128729659Y-86370414D01*
X128734576Y-86387336D01*
X128739500Y-86421932D01*
X128739500Y-89245500D01*
X128719815Y-89312539D01*
X128667011Y-89358294D01*
X128615500Y-89369500D01*
X127255940Y-89369500D01*
X127188901Y-89349815D01*
X127168259Y-89333181D01*
X126474843Y-88639765D01*
X126441358Y-88578442D01*
X126440051Y-88532687D01*
X126445500Y-88498287D01*
X126445500Y-88285713D01*
X126412246Y-88075757D01*
X126346557Y-87873588D01*
X126250051Y-87684184D01*
X126250049Y-87684181D01*
X126250048Y-87684179D01*
X126125109Y-87512213D01*
X125974786Y-87361890D01*
X125802820Y-87236951D01*
X125802115Y-87236591D01*
X125794054Y-87232485D01*
X125743259Y-87184512D01*
X125726463Y-87116692D01*
X125748999Y-87050556D01*
X125794054Y-87011515D01*
X125802816Y-87007051D01*
X125824789Y-86991086D01*
X125974786Y-86882109D01*
X125974788Y-86882106D01*
X125974792Y-86882104D01*
X126125104Y-86731792D01*
X126125106Y-86731788D01*
X126125109Y-86731786D01*
X126250048Y-86559820D01*
X126250047Y-86559820D01*
X126250051Y-86559816D01*
X126346557Y-86370412D01*
X126412246Y-86168243D01*
X126445500Y-85958287D01*
X126445500Y-85745713D01*
X126412246Y-85535757D01*
X126346557Y-85333588D01*
X126250051Y-85144184D01*
X126250049Y-85144181D01*
X126250048Y-85144179D01*
X126125109Y-84972213D01*
X125992896Y-84840000D01*
X128727156Y-84840000D01*
X129290000Y-84840000D01*
X129790000Y-84840000D01*
X130352844Y-84840000D01*
X130312404Y-84700805D01*
X130230738Y-84562714D01*
X130230731Y-84562705D01*
X130117294Y-84449268D01*
X130117285Y-84449261D01*
X129979191Y-84367593D01*
X129979188Y-84367592D01*
X129825130Y-84322834D01*
X129790000Y-84320068D01*
X129790000Y-84840000D01*
X129290000Y-84840000D01*
X129290000Y-84320068D01*
X129289999Y-84320068D01*
X129254869Y-84322834D01*
X129254868Y-84322834D01*
X129100811Y-84367592D01*
X129100808Y-84367593D01*
X128962714Y-84449261D01*
X128962705Y-84449268D01*
X128849268Y-84562705D01*
X128849261Y-84562714D01*
X128767595Y-84700805D01*
X128727156Y-84840000D01*
X125992896Y-84840000D01*
X125974786Y-84821890D01*
X125802820Y-84696951D01*
X125613414Y-84600444D01*
X125613413Y-84600443D01*
X125613412Y-84600443D01*
X125411243Y-84534754D01*
X125411241Y-84534753D01*
X125411240Y-84534753D01*
X125249957Y-84509208D01*
X125201287Y-84501500D01*
X124988713Y-84501500D01*
X124940042Y-84509208D01*
X124778760Y-84534753D01*
X124576585Y-84600444D01*
X124387179Y-84696951D01*
X124215213Y-84821890D01*
X124064890Y-84972213D01*
X123939951Y-85144179D01*
X123843444Y-85333585D01*
X123777753Y-85535760D01*
X123748477Y-85720606D01*
X123744500Y-85745713D01*
X123744500Y-85958287D01*
X123777754Y-86168243D01*
X123835252Y-86345204D01*
X123843444Y-86370414D01*
X123939951Y-86559820D01*
X124064890Y-86731786D01*
X124215213Y-86882109D01*
X124387182Y-87007050D01*
X124395946Y-87011516D01*
X124446742Y-87059491D01*
X124463536Y-87127312D01*
X124440998Y-87193447D01*
X124395946Y-87232484D01*
X124387182Y-87236949D01*
X124215213Y-87361890D01*
X124064890Y-87512213D01*
X123939951Y-87684179D01*
X123843444Y-87873585D01*
X123777753Y-88075760D01*
X123770151Y-88123757D01*
X123744500Y-88285713D01*
X123744500Y-88498287D01*
X123777754Y-88708243D01*
X123793350Y-88756243D01*
X123843444Y-88910414D01*
X123939951Y-89099820D01*
X124064890Y-89271786D01*
X124215213Y-89422109D01*
X124387182Y-89547050D01*
X124395946Y-89551516D01*
X124446742Y-89599491D01*
X124463536Y-89667312D01*
X124440998Y-89733447D01*
X124395946Y-89772484D01*
X124387182Y-89776949D01*
X124215213Y-89901890D01*
X124064890Y-90052213D01*
X123939951Y-90224179D01*
X123843444Y-90413585D01*
X123777753Y-90615760D01*
X123744500Y-90825713D01*
X123744500Y-91038286D01*
X123776947Y-91243153D01*
X123777754Y-91248243D01*
X123836229Y-91428211D01*
X123843444Y-91450414D01*
X123939951Y-91639820D01*
X124064890Y-91811786D01*
X124215213Y-91962109D01*
X124387182Y-92087050D01*
X124395946Y-92091516D01*
X124446742Y-92139491D01*
X124463536Y-92207312D01*
X124440998Y-92273447D01*
X124395946Y-92312484D01*
X124387182Y-92316949D01*
X124215213Y-92441890D01*
X124064890Y-92592213D01*
X123939951Y-92764179D01*
X123843444Y-92953585D01*
X123777753Y-93155760D01*
X123744500Y-93365713D01*
X123744500Y-93578286D01*
X123774510Y-93767766D01*
X123777754Y-93788243D01*
X123817315Y-93910000D01*
X123843444Y-93990414D01*
X123939951Y-94179820D01*
X124064890Y-94351786D01*
X124215213Y-94502109D01*
X124387182Y-94627050D01*
X124395946Y-94631516D01*
X124446742Y-94679491D01*
X124463536Y-94747312D01*
X124440998Y-94813447D01*
X124395946Y-94852484D01*
X124387182Y-94856949D01*
X124215213Y-94981890D01*
X124064890Y-95132213D01*
X123939951Y-95304179D01*
X123843444Y-95493585D01*
X123777753Y-95695760D01*
X123770151Y-95743757D01*
X123744500Y-95905713D01*
X123744500Y-96118287D01*
X123777754Y-96328243D01*
X123814442Y-96441158D01*
X123843444Y-96530414D01*
X123939951Y-96719820D01*
X124064890Y-96891786D01*
X124215213Y-97042109D01*
X124387182Y-97167050D01*
X124395946Y-97171516D01*
X124446742Y-97219491D01*
X124463536Y-97287312D01*
X124440998Y-97353447D01*
X124395946Y-97392484D01*
X124387182Y-97396949D01*
X124215213Y-97521890D01*
X124064890Y-97672213D01*
X123939951Y-97844179D01*
X123843444Y-98033585D01*
X123777753Y-98235760D01*
X123770151Y-98283757D01*
X123744500Y-98445713D01*
X123744500Y-98658287D01*
X123777754Y-98868243D01*
X123793350Y-98916243D01*
X123843444Y-99070414D01*
X123939951Y-99259820D01*
X124064890Y-99431786D01*
X124215213Y-99582109D01*
X124387182Y-99707050D01*
X124395946Y-99711516D01*
X124446742Y-99759491D01*
X124463536Y-99827312D01*
X124440998Y-99893447D01*
X124395946Y-99932484D01*
X124387182Y-99936949D01*
X124215213Y-100061890D01*
X124064890Y-100212213D01*
X123939951Y-100384179D01*
X123843444Y-100573585D01*
X123777753Y-100775760D01*
X123744500Y-100985713D01*
X123744500Y-101198286D01*
X123763600Y-101318882D01*
X123777754Y-101408243D01*
X123815957Y-101525820D01*
X123843444Y-101610414D01*
X123939951Y-101799820D01*
X124064890Y-101971786D01*
X124215213Y-102122109D01*
X124387182Y-102247050D01*
X124395946Y-102251516D01*
X124446742Y-102299491D01*
X124463536Y-102367312D01*
X124440998Y-102433447D01*
X124395946Y-102472484D01*
X124387182Y-102476949D01*
X124215213Y-102601890D01*
X124064890Y-102752213D01*
X123939951Y-102924179D01*
X123843444Y-103113585D01*
X123777753Y-103315760D01*
X123770151Y-103363757D01*
X123744500Y-103525713D01*
X123744500Y-103738287D01*
X123777754Y-103948243D01*
X123793350Y-103996243D01*
X123843444Y-104150414D01*
X123939951Y-104339820D01*
X124064890Y-104511786D01*
X124215213Y-104662109D01*
X124387182Y-104787050D01*
X124395946Y-104791516D01*
X124446742Y-104839491D01*
X124463536Y-104907312D01*
X124440998Y-104973447D01*
X124395946Y-105012484D01*
X124387182Y-105016949D01*
X124215213Y-105141890D01*
X124064890Y-105292213D01*
X123939951Y-105464179D01*
X123843444Y-105653585D01*
X123777753Y-105855760D01*
X123744500Y-106065713D01*
X123744500Y-106278286D01*
X123763600Y-106398882D01*
X123777754Y-106488243D01*
X123793350Y-106536243D01*
X123843444Y-106690414D01*
X123939951Y-106879820D01*
X124064890Y-107051786D01*
X124215213Y-107202109D01*
X124387182Y-107327050D01*
X124395946Y-107331516D01*
X124446742Y-107379491D01*
X124463536Y-107447312D01*
X124440998Y-107513447D01*
X124395946Y-107552484D01*
X124387182Y-107556949D01*
X124215213Y-107681890D01*
X124064890Y-107832213D01*
X123939951Y-108004179D01*
X123843444Y-108193585D01*
X123777753Y-108395760D01*
X123770151Y-108443757D01*
X123744500Y-108605713D01*
X123744500Y-108818287D01*
X123777754Y-109028243D01*
X123793350Y-109076243D01*
X123843444Y-109230414D01*
X123939951Y-109419820D01*
X124064890Y-109591786D01*
X124215213Y-109742109D01*
X124387182Y-109867050D01*
X124395946Y-109871516D01*
X124446742Y-109919491D01*
X124463536Y-109987312D01*
X124440998Y-110053447D01*
X124395946Y-110092484D01*
X124387182Y-110096949D01*
X124215213Y-110221890D01*
X124064890Y-110372213D01*
X123939951Y-110544179D01*
X123843444Y-110733585D01*
X123777753Y-110935760D01*
X123744500Y-111145713D01*
X123744500Y-111358287D01*
X123744499Y-111358287D01*
X123749948Y-111392686D01*
X123740993Y-111461979D01*
X123715156Y-111499764D01*
X121481209Y-113733713D01*
X120774711Y-114440211D01*
X120718960Y-114495962D01*
X120663209Y-114551712D01*
X120575609Y-114682814D01*
X120575602Y-114682827D01*
X120515264Y-114828498D01*
X120515261Y-114828510D01*
X120484500Y-114983153D01*
X120484500Y-122633846D01*
X120515261Y-122788489D01*
X120515264Y-122788501D01*
X120575602Y-122934172D01*
X120575609Y-122934185D01*
X120663210Y-123065288D01*
X120663213Y-123065292D01*
X124584707Y-126986786D01*
X124584711Y-126986789D01*
X124715814Y-127074390D01*
X124715818Y-127074392D01*
X124715821Y-127074394D01*
X124861503Y-127134738D01*
X125016153Y-127165499D01*
X125016157Y-127165500D01*
X125016158Y-127165500D01*
X125173843Y-127165500D01*
X129024106Y-127165500D01*
X129091145Y-127185185D01*
X129124422Y-127216612D01*
X129144896Y-127244792D01*
X129144898Y-127244794D01*
X129295213Y-127395109D01*
X129467179Y-127520048D01*
X129467181Y-127520049D01*
X129467184Y-127520051D01*
X129656588Y-127616557D01*
X129858757Y-127682246D01*
X130068713Y-127715500D01*
X130068714Y-127715500D01*
X130281286Y-127715500D01*
X130281287Y-127715500D01*
X130491243Y-127682246D01*
X130693412Y-127616557D01*
X130882816Y-127520051D01*
X130931617Y-127484595D01*
X131054786Y-127395109D01*
X131054788Y-127395106D01*
X131054792Y-127395104D01*
X131205104Y-127244792D01*
X131205106Y-127244788D01*
X131205109Y-127244786D01*
X131328904Y-127074395D01*
X131330051Y-127072816D01*
X131334514Y-127064054D01*
X131382488Y-127013259D01*
X131450308Y-126996463D01*
X131516444Y-127018999D01*
X131555486Y-127064056D01*
X131559951Y-127072820D01*
X131684890Y-127244786D01*
X131684896Y-127244792D01*
X131835208Y-127395104D01*
X131863384Y-127415575D01*
X131906050Y-127470902D01*
X131914500Y-127515893D01*
X131914500Y-128702648D01*
X131894815Y-128769687D01*
X131842011Y-128815442D01*
X131803755Y-128825938D01*
X131757516Y-128830909D01*
X131622671Y-128881202D01*
X131622664Y-128881206D01*
X131507455Y-128967452D01*
X131507452Y-128967455D01*
X131421206Y-129082664D01*
X131421203Y-129082669D01*
X131372189Y-129214083D01*
X131330317Y-129270016D01*
X131264853Y-129294433D01*
X131196580Y-129279581D01*
X131168326Y-129258430D01*
X131054786Y-129144890D01*
X130882820Y-129019951D01*
X130693414Y-128923444D01*
X130693413Y-128923443D01*
X130693412Y-128923443D01*
X130491243Y-128857754D01*
X130491241Y-128857753D01*
X130491240Y-128857753D01*
X130329957Y-128832208D01*
X130281287Y-128824500D01*
X130068713Y-128824500D01*
X130020042Y-128832208D01*
X129858760Y-128857753D01*
X129656585Y-128923444D01*
X129467179Y-129019951D01*
X129295213Y-129144890D01*
X129144898Y-129295205D01*
X129144898Y-129295206D01*
X129144896Y-129295208D01*
X129124422Y-129323386D01*
X129069094Y-129366051D01*
X129024106Y-129374500D01*
X121667940Y-129374500D01*
X121600901Y-129354815D01*
X121580259Y-129338181D01*
X117660292Y-125418213D01*
X117660288Y-125418210D01*
X117529185Y-125330609D01*
X117529172Y-125330602D01*
X117383501Y-125270264D01*
X117383489Y-125270261D01*
X117228845Y-125239500D01*
X117228842Y-125239500D01*
X116283842Y-125239500D01*
X113743842Y-125239500D01*
X111203842Y-125239500D01*
X108663842Y-125239500D01*
X105292940Y-125239500D01*
X105225901Y-125219815D01*
X105205259Y-125203181D01*
X101709843Y-121707765D01*
X101676358Y-121646442D01*
X101675051Y-121600687D01*
X101680500Y-121566287D01*
X101680500Y-121353713D01*
X101647246Y-121143757D01*
X101581557Y-120941588D01*
X101485051Y-120752184D01*
X101485049Y-120752181D01*
X101485048Y-120752179D01*
X101360109Y-120580213D01*
X101209786Y-120429890D01*
X101037820Y-120304951D01*
X101037115Y-120304591D01*
X101029054Y-120300485D01*
X100978259Y-120252512D01*
X100961463Y-120184692D01*
X100983999Y-120118556D01*
X101029054Y-120079515D01*
X101037816Y-120075051D01*
X101145618Y-119996729D01*
X101209786Y-119950109D01*
X101209788Y-119950106D01*
X101209792Y-119950104D01*
X101360104Y-119799792D01*
X101360106Y-119799788D01*
X101360109Y-119799786D01*
X101485048Y-119627820D01*
X101485047Y-119627820D01*
X101485051Y-119627816D01*
X101581557Y-119438412D01*
X101647246Y-119236243D01*
X101680500Y-119026287D01*
X101680500Y-118813713D01*
X101647246Y-118603757D01*
X101581557Y-118401588D01*
X101485051Y-118212184D01*
X101485049Y-118212181D01*
X101485048Y-118212179D01*
X101360109Y-118040213D01*
X101209786Y-117889890D01*
X101037820Y-117764951D01*
X101037115Y-117764591D01*
X101029054Y-117760485D01*
X100978259Y-117712512D01*
X100961463Y-117644692D01*
X100983999Y-117578556D01*
X101029054Y-117539515D01*
X101037816Y-117535051D01*
X101103887Y-117487048D01*
X101209786Y-117410109D01*
X101209788Y-117410106D01*
X101209792Y-117410104D01*
X101360104Y-117259792D01*
X101360106Y-117259788D01*
X101360109Y-117259786D01*
X101485048Y-117087820D01*
X101485047Y-117087820D01*
X101485051Y-117087816D01*
X101581557Y-116898412D01*
X101647246Y-116696243D01*
X101680500Y-116486287D01*
X101680500Y-116273713D01*
X101647246Y-116063757D01*
X101581557Y-115861588D01*
X101485051Y-115672184D01*
X101485049Y-115672181D01*
X101485048Y-115672179D01*
X101360109Y-115500213D01*
X101209786Y-115349890D01*
X101037820Y-115224951D01*
X101037115Y-115224591D01*
X101029054Y-115220485D01*
X100978259Y-115172512D01*
X100961463Y-115104692D01*
X100983999Y-115038556D01*
X101029054Y-114999515D01*
X101037816Y-114995051D01*
X101103887Y-114947048D01*
X101209786Y-114870109D01*
X101209788Y-114870106D01*
X101209792Y-114870104D01*
X101360104Y-114719792D01*
X101360106Y-114719788D01*
X101360109Y-114719786D01*
X101485048Y-114547820D01*
X101485047Y-114547820D01*
X101485051Y-114547816D01*
X101581557Y-114358412D01*
X101647246Y-114156243D01*
X101680500Y-113946287D01*
X101680500Y-113733713D01*
X101647246Y-113523757D01*
X101581557Y-113321588D01*
X101485051Y-113132184D01*
X101485049Y-113132181D01*
X101485048Y-113132179D01*
X101360109Y-112960213D01*
X101209786Y-112809890D01*
X101037820Y-112684951D01*
X101037115Y-112684591D01*
X101029054Y-112680485D01*
X100978259Y-112632512D01*
X100961463Y-112564692D01*
X100983999Y-112498556D01*
X101029054Y-112459515D01*
X101037816Y-112455051D01*
X101103887Y-112407048D01*
X101209786Y-112330109D01*
X101209788Y-112330106D01*
X101209792Y-112330104D01*
X101360104Y-112179792D01*
X101360106Y-112179788D01*
X101360109Y-112179786D01*
X101485048Y-112007820D01*
X101485047Y-112007820D01*
X101485051Y-112007816D01*
X101581557Y-111818412D01*
X101647246Y-111616243D01*
X101680500Y-111406287D01*
X101680500Y-111193713D01*
X101647246Y-110983757D01*
X101581557Y-110781588D01*
X101485051Y-110592184D01*
X101485049Y-110592181D01*
X101485048Y-110592179D01*
X101360109Y-110420213D01*
X101209786Y-110269890D01*
X101037820Y-110144951D01*
X101037115Y-110144591D01*
X101029054Y-110140485D01*
X100978259Y-110092512D01*
X100961463Y-110024692D01*
X100983999Y-109958556D01*
X101029054Y-109919515D01*
X101037816Y-109915051D01*
X101103887Y-109867048D01*
X101209786Y-109790109D01*
X101209788Y-109790106D01*
X101209792Y-109790104D01*
X101360104Y-109639792D01*
X101360106Y-109639788D01*
X101360109Y-109639786D01*
X101485048Y-109467820D01*
X101485047Y-109467820D01*
X101485051Y-109467816D01*
X101581557Y-109278412D01*
X101647246Y-109076243D01*
X101680500Y-108866287D01*
X101680500Y-108653713D01*
X101647246Y-108443757D01*
X101581557Y-108241588D01*
X101485051Y-108052184D01*
X101485049Y-108052181D01*
X101485048Y-108052179D01*
X101360109Y-107880213D01*
X101209786Y-107729890D01*
X101037820Y-107604951D01*
X101037115Y-107604591D01*
X101029054Y-107600485D01*
X100978259Y-107552512D01*
X100961463Y-107484692D01*
X100983999Y-107418556D01*
X101029054Y-107379515D01*
X101037816Y-107375051D01*
X101103887Y-107327048D01*
X101209786Y-107250109D01*
X101209788Y-107250106D01*
X101209792Y-107250104D01*
X101360104Y-107099792D01*
X101360106Y-107099788D01*
X101360109Y-107099786D01*
X101485048Y-106927820D01*
X101485047Y-106927820D01*
X101485051Y-106927816D01*
X101581557Y-106738412D01*
X101647246Y-106536243D01*
X101680500Y-106326287D01*
X101680500Y-106113713D01*
X101647246Y-105903757D01*
X101581557Y-105701588D01*
X101485051Y-105512184D01*
X101485049Y-105512181D01*
X101485048Y-105512179D01*
X101360109Y-105340213D01*
X101209786Y-105189890D01*
X101037820Y-105064951D01*
X101037115Y-105064591D01*
X101029054Y-105060485D01*
X100978259Y-105012512D01*
X100961463Y-104944692D01*
X100983999Y-104878556D01*
X101029054Y-104839515D01*
X101037816Y-104835051D01*
X101103887Y-104787048D01*
X101209786Y-104710109D01*
X101209788Y-104710106D01*
X101209792Y-104710104D01*
X101360104Y-104559792D01*
X101360106Y-104559788D01*
X101360109Y-104559786D01*
X101485048Y-104387820D01*
X101485047Y-104387820D01*
X101485051Y-104387816D01*
X101581557Y-104198412D01*
X101647246Y-103996243D01*
X101680500Y-103786287D01*
X101680500Y-103573713D01*
X101647246Y-103363757D01*
X101581557Y-103161588D01*
X101485051Y-102972184D01*
X101485049Y-102972181D01*
X101485048Y-102972179D01*
X101360109Y-102800213D01*
X101209786Y-102649890D01*
X101037820Y-102524951D01*
X101037115Y-102524591D01*
X101029054Y-102520485D01*
X100978259Y-102472512D01*
X100961463Y-102404692D01*
X100983999Y-102338556D01*
X101029054Y-102299515D01*
X101037816Y-102295051D01*
X101113457Y-102240095D01*
X101209786Y-102170109D01*
X101209788Y-102170106D01*
X101209792Y-102170104D01*
X101360104Y-102019792D01*
X101360106Y-102019788D01*
X101360109Y-102019786D01*
X101485048Y-101847820D01*
X101485047Y-101847820D01*
X101485051Y-101847816D01*
X101581557Y-101658412D01*
X101647246Y-101456243D01*
X101680500Y-101246287D01*
X101680500Y-101033713D01*
X101647246Y-100823757D01*
X101581557Y-100621588D01*
X101485051Y-100432184D01*
X101485049Y-100432181D01*
X101485048Y-100432179D01*
X101360109Y-100260213D01*
X101209786Y-100109890D01*
X101037820Y-99984951D01*
X101037115Y-99984591D01*
X101029054Y-99980485D01*
X100978259Y-99932512D01*
X100961463Y-99864692D01*
X100983999Y-99798556D01*
X101029054Y-99759515D01*
X101037816Y-99755051D01*
X101103887Y-99707048D01*
X101209786Y-99630109D01*
X101209788Y-99630106D01*
X101209792Y-99630104D01*
X101360104Y-99479792D01*
X101360106Y-99479788D01*
X101360109Y-99479786D01*
X101485048Y-99307820D01*
X101485047Y-99307820D01*
X101485051Y-99307816D01*
X101581557Y-99118412D01*
X101647246Y-98916243D01*
X101680500Y-98706287D01*
X101680500Y-98493713D01*
X101647246Y-98283757D01*
X101581557Y-98081588D01*
X101485051Y-97892184D01*
X101485049Y-97892181D01*
X101485048Y-97892179D01*
X101360109Y-97720213D01*
X101209786Y-97569890D01*
X101037820Y-97444951D01*
X101037115Y-97444591D01*
X101029054Y-97440485D01*
X100978259Y-97392512D01*
X100961463Y-97324692D01*
X100983999Y-97258556D01*
X101029054Y-97219515D01*
X101037816Y-97215051D01*
X101103887Y-97167048D01*
X101209786Y-97090109D01*
X101209788Y-97090106D01*
X101209792Y-97090104D01*
X101360104Y-96939792D01*
X101360106Y-96939788D01*
X101360109Y-96939786D01*
X101485048Y-96767820D01*
X101485047Y-96767820D01*
X101485051Y-96767816D01*
X101581557Y-96578412D01*
X101647246Y-96376243D01*
X101680500Y-96166287D01*
X101680500Y-95953713D01*
X101647246Y-95743757D01*
X101581557Y-95541588D01*
X101485051Y-95352184D01*
X101485049Y-95352181D01*
X101485048Y-95352179D01*
X101360109Y-95180213D01*
X101209786Y-95029890D01*
X101037820Y-94904951D01*
X101037115Y-94904591D01*
X101029054Y-94900485D01*
X100978259Y-94852512D01*
X100961463Y-94784692D01*
X100983999Y-94718556D01*
X101029054Y-94679515D01*
X101037816Y-94675051D01*
X101103884Y-94627050D01*
X101209786Y-94550109D01*
X101209788Y-94550106D01*
X101209792Y-94550104D01*
X101360104Y-94399792D01*
X101360106Y-94399788D01*
X101360109Y-94399786D01*
X101485048Y-94227820D01*
X101485047Y-94227820D01*
X101485051Y-94227816D01*
X101581557Y-94038412D01*
X101647246Y-93836243D01*
X101680500Y-93626287D01*
X101680500Y-93413713D01*
X101647246Y-93203757D01*
X101581557Y-93001588D01*
X101485051Y-92812184D01*
X101485049Y-92812181D01*
X101485048Y-92812179D01*
X101360109Y-92640213D01*
X101209786Y-92489890D01*
X101037820Y-92364951D01*
X101037115Y-92364591D01*
X101029054Y-92360485D01*
X100978259Y-92312512D01*
X100961463Y-92244692D01*
X100983999Y-92178556D01*
X101029054Y-92139515D01*
X101037816Y-92135051D01*
X101112130Y-92081059D01*
X101209786Y-92010109D01*
X101209788Y-92010106D01*
X101209792Y-92010104D01*
X101360104Y-91859792D01*
X101360106Y-91859788D01*
X101360109Y-91859786D01*
X101469086Y-91709789D01*
X101485051Y-91687816D01*
X101581557Y-91498412D01*
X101647246Y-91296243D01*
X101680500Y-91086287D01*
X101680500Y-90873713D01*
X101647246Y-90663757D01*
X101581557Y-90461588D01*
X101485051Y-90272184D01*
X101485049Y-90272181D01*
X101485048Y-90272179D01*
X101360109Y-90100213D01*
X101209786Y-89949890D01*
X101037820Y-89824951D01*
X101037115Y-89824591D01*
X101029054Y-89820485D01*
X100978259Y-89772512D01*
X100961463Y-89704692D01*
X100983999Y-89638556D01*
X101029054Y-89599515D01*
X101037816Y-89595051D01*
X101097737Y-89551516D01*
X101209786Y-89470109D01*
X101209788Y-89470106D01*
X101209792Y-89470104D01*
X101360104Y-89319792D01*
X101360106Y-89319788D01*
X101360109Y-89319786D01*
X101485048Y-89147820D01*
X101485047Y-89147820D01*
X101485051Y-89147816D01*
X101581557Y-88958412D01*
X101647246Y-88756243D01*
X101680500Y-88546287D01*
X101680500Y-88333713D01*
X101647246Y-88123757D01*
X101581557Y-87921588D01*
X101485051Y-87732184D01*
X101485049Y-87732181D01*
X101485048Y-87732179D01*
X101360109Y-87560213D01*
X101246569Y-87446673D01*
X101213084Y-87385350D01*
X101218068Y-87315658D01*
X101259940Y-87259725D01*
X101290915Y-87242810D01*
X101422331Y-87193796D01*
X101537546Y-87107546D01*
X101623796Y-86992331D01*
X101674091Y-86857483D01*
X101680500Y-86797873D01*
X101680499Y-85002128D01*
X101674091Y-84942517D01*
X101639692Y-84850289D01*
X101623797Y-84807671D01*
X101623793Y-84807664D01*
X101537547Y-84692455D01*
X101537544Y-84692452D01*
X101422335Y-84606206D01*
X101422328Y-84606202D01*
X101287482Y-84555908D01*
X101287483Y-84555908D01*
X101227883Y-84549501D01*
X101227881Y-84549500D01*
X101227873Y-84549500D01*
X101227864Y-84549500D01*
X99432129Y-84549500D01*
X99432123Y-84549501D01*
X99372516Y-84555908D01*
X99237671Y-84606202D01*
X99237664Y-84606206D01*
X99122455Y-84692452D01*
X99122452Y-84692455D01*
X99036206Y-84807664D01*
X99036202Y-84807671D01*
X98985908Y-84942517D01*
X98982716Y-84972213D01*
X98979501Y-85002123D01*
X98979500Y-85002135D01*
X98979500Y-86797870D01*
X98979501Y-86797876D01*
X98985908Y-86857483D01*
X99036202Y-86992328D01*
X99036206Y-86992335D01*
X99122452Y-87107544D01*
X99122455Y-87107547D01*
X99237664Y-87193793D01*
X99237671Y-87193797D01*
X99369082Y-87242810D01*
X99425016Y-87284681D01*
X99449433Y-87350145D01*
X99434582Y-87418418D01*
X99413431Y-87446673D01*
X99299889Y-87560215D01*
X99174951Y-87732179D01*
X99078444Y-87921585D01*
X99012753Y-88123760D01*
X98979500Y-88333713D01*
X98979500Y-88546286D01*
X98994305Y-88639765D01*
X99012754Y-88756243D01*
X99062847Y-88910414D01*
X99078444Y-88958414D01*
X99174951Y-89147820D01*
X99299890Y-89319786D01*
X99450213Y-89470109D01*
X99622182Y-89595050D01*
X99630946Y-89599516D01*
X99681742Y-89647491D01*
X99698536Y-89715312D01*
X99675998Y-89781447D01*
X99630946Y-89820484D01*
X99622182Y-89824949D01*
X99450213Y-89949890D01*
X99299890Y-90100213D01*
X99174951Y-90272179D01*
X99078444Y-90461585D01*
X99012753Y-90663760D01*
X98979500Y-90873713D01*
X98979500Y-91086286D01*
X99010222Y-91280261D01*
X99012754Y-91296243D01*
X99062847Y-91450414D01*
X99078444Y-91498414D01*
X99174951Y-91687820D01*
X99299890Y-91859786D01*
X99450213Y-92010109D01*
X99622182Y-92135050D01*
X99630946Y-92139516D01*
X99681742Y-92187491D01*
X99698536Y-92255312D01*
X99675998Y-92321447D01*
X99630946Y-92360484D01*
X99622182Y-92364949D01*
X99450213Y-92489890D01*
X99299890Y-92640213D01*
X99174951Y-92812179D01*
X99078444Y-93001585D01*
X99012753Y-93203760D01*
X98979500Y-93413713D01*
X98979500Y-93626288D01*
X98984948Y-93660689D01*
X98975992Y-93729982D01*
X98950155Y-93767766D01*
X96152732Y-96565188D01*
X96091409Y-96598673D01*
X96045653Y-96599980D01*
X95979486Y-96589500D01*
X95979481Y-96589500D01*
X95790519Y-96589500D01*
X95790514Y-96589500D01*
X95603881Y-96619059D01*
X95424163Y-96677454D01*
X95255800Y-96763240D01*
X95168579Y-96826610D01*
X95102927Y-96874310D01*
X95102925Y-96874312D01*
X95102924Y-96874312D01*
X94969312Y-97007924D01*
X94969312Y-97007925D01*
X94969310Y-97007927D01*
X94944479Y-97042104D01*
X94858240Y-97160800D01*
X94772454Y-97329163D01*
X94714059Y-97508881D01*
X94684500Y-97695513D01*
X91305500Y-97695513D01*
X91305500Y-93717882D01*
X95230669Y-93717882D01*
X95230670Y-93717883D01*
X95256059Y-93736329D01*
X95424362Y-93822085D01*
X95603997Y-93880451D01*
X95790553Y-93910000D01*
X95979447Y-93910000D01*
X96166002Y-93880451D01*
X96345637Y-93822085D01*
X96513937Y-93736331D01*
X96539328Y-93717883D01*
X96539328Y-93717882D01*
X95885001Y-93063554D01*
X95885000Y-93063554D01*
X95230669Y-93717882D01*
X91305500Y-93717882D01*
X91305500Y-92615552D01*
X94685000Y-92615552D01*
X94685000Y-92804447D01*
X94714548Y-92991002D01*
X94772914Y-93170637D01*
X94858666Y-93338933D01*
X94877116Y-93364328D01*
X95531446Y-92710000D01*
X95531446Y-92709999D01*
X95485369Y-92663922D01*
X95535000Y-92663922D01*
X95535000Y-92756078D01*
X95558852Y-92845095D01*
X95604930Y-92924905D01*
X95670095Y-92990070D01*
X95749905Y-93036148D01*
X95838922Y-93060000D01*
X95931078Y-93060000D01*
X96020095Y-93036148D01*
X96099905Y-92990070D01*
X96165070Y-92924905D01*
X96211148Y-92845095D01*
X96235000Y-92756078D01*
X96235000Y-92709999D01*
X96238554Y-92709999D01*
X96238554Y-92710000D01*
X96892882Y-93364328D01*
X96892883Y-93364328D01*
X96911331Y-93338937D01*
X96997085Y-93170637D01*
X97055451Y-92991002D01*
X97085000Y-92804447D01*
X97085000Y-92615552D01*
X97055451Y-92428997D01*
X96997085Y-92249362D01*
X96911329Y-92081059D01*
X96892883Y-92055670D01*
X96892882Y-92055669D01*
X96238554Y-92709999D01*
X96235000Y-92709999D01*
X96235000Y-92663922D01*
X96211148Y-92574905D01*
X96165070Y-92495095D01*
X96099905Y-92429930D01*
X96020095Y-92383852D01*
X95931078Y-92360000D01*
X95838922Y-92360000D01*
X95749905Y-92383852D01*
X95670095Y-92429930D01*
X95604930Y-92495095D01*
X95558852Y-92574905D01*
X95535000Y-92663922D01*
X95485369Y-92663922D01*
X94877116Y-92055669D01*
X94877116Y-92055670D01*
X94858669Y-92081060D01*
X94772914Y-92249362D01*
X94714548Y-92428997D01*
X94685000Y-92615552D01*
X91305500Y-92615552D01*
X91305500Y-91702116D01*
X95230669Y-91702116D01*
X95885000Y-92356446D01*
X95885001Y-92356446D01*
X96539328Y-91702116D01*
X96513933Y-91683666D01*
X96345637Y-91597914D01*
X96166002Y-91539548D01*
X95979447Y-91510000D01*
X95790553Y-91510000D01*
X95603997Y-91539548D01*
X95424362Y-91597914D01*
X95256060Y-91683669D01*
X95230670Y-91702116D01*
X95230669Y-91702116D01*
X91305500Y-91702116D01*
X91305500Y-83823246D01*
X91305670Y-83816757D01*
X91308953Y-83754108D01*
X91311856Y-83698711D01*
X92764500Y-83698711D01*
X92764500Y-83941288D01*
X92796161Y-84181785D01*
X92858947Y-84416104D01*
X92937689Y-84606204D01*
X92951776Y-84640212D01*
X93073064Y-84850289D01*
X93073066Y-84850292D01*
X93073067Y-84850293D01*
X93220733Y-85042736D01*
X93220739Y-85042743D01*
X93392256Y-85214260D01*
X93392262Y-85214265D01*
X93584711Y-85361936D01*
X93794788Y-85483224D01*
X94018900Y-85576054D01*
X94253211Y-85638838D01*
X94433586Y-85662584D01*
X94493711Y-85670500D01*
X94493712Y-85670500D01*
X94736289Y-85670500D01*
X94796083Y-85662628D01*
X94976789Y-85638838D01*
X95211100Y-85576054D01*
X95435212Y-85483224D01*
X95645289Y-85361936D01*
X95837738Y-85214265D01*
X96009265Y-85042738D01*
X96156936Y-84850289D01*
X96278224Y-84640212D01*
X96371054Y-84416100D01*
X96433838Y-84181789D01*
X96465500Y-83941288D01*
X96465500Y-83698712D01*
X96465500Y-83698711D01*
X137849500Y-83698711D01*
X137849500Y-83941288D01*
X137881161Y-84181785D01*
X137943947Y-84416104D01*
X138022689Y-84606204D01*
X138036776Y-84640212D01*
X138158064Y-84850289D01*
X138158066Y-84850292D01*
X138158067Y-84850293D01*
X138305733Y-85042736D01*
X138305739Y-85042743D01*
X138477256Y-85214260D01*
X138477262Y-85214265D01*
X138669711Y-85361936D01*
X138879788Y-85483224D01*
X139103900Y-85576054D01*
X139338211Y-85638838D01*
X139518586Y-85662584D01*
X139578711Y-85670500D01*
X139578712Y-85670500D01*
X139821289Y-85670500D01*
X139881083Y-85662628D01*
X140061789Y-85638838D01*
X140296100Y-85576054D01*
X140520212Y-85483224D01*
X140730289Y-85361936D01*
X140922738Y-85214265D01*
X141094265Y-85042738D01*
X141241936Y-84850289D01*
X141363224Y-84640212D01*
X141456054Y-84416100D01*
X141518838Y-84181789D01*
X141550500Y-83941288D01*
X141550500Y-83698712D01*
X141518838Y-83458211D01*
X141456054Y-83223900D01*
X141363224Y-82999788D01*
X141241936Y-82789711D01*
X141094265Y-82597262D01*
X141094260Y-82597256D01*
X140922743Y-82425739D01*
X140922736Y-82425733D01*
X140730293Y-82278067D01*
X140730292Y-82278066D01*
X140730289Y-82278064D01*
X140544909Y-82171035D01*
X140520214Y-82156777D01*
X140520205Y-82156773D01*
X140296104Y-82063947D01*
X140061785Y-82001161D01*
X139821289Y-81969500D01*
X139821288Y-81969500D01*
X139578712Y-81969500D01*
X139578711Y-81969500D01*
X139338214Y-82001161D01*
X139103895Y-82063947D01*
X138879794Y-82156773D01*
X138879785Y-82156777D01*
X138669706Y-82278067D01*
X138477263Y-82425733D01*
X138477256Y-82425739D01*
X138305739Y-82597256D01*
X138305733Y-82597263D01*
X138158067Y-82789706D01*
X138036777Y-82999785D01*
X138036773Y-82999794D01*
X137943947Y-83223895D01*
X137881161Y-83458214D01*
X137849500Y-83698711D01*
X96465500Y-83698711D01*
X96433838Y-83458211D01*
X96371054Y-83223900D01*
X96278224Y-82999788D01*
X96156936Y-82789711D01*
X96009265Y-82597262D01*
X96009260Y-82597256D01*
X95837743Y-82425739D01*
X95837736Y-82425733D01*
X95645293Y-82278067D01*
X95645292Y-82278066D01*
X95645289Y-82278064D01*
X95459909Y-82171035D01*
X95435214Y-82156777D01*
X95435205Y-82156773D01*
X95211104Y-82063947D01*
X94976785Y-82001161D01*
X94736289Y-81969500D01*
X94736288Y-81969500D01*
X94493712Y-81969500D01*
X94493711Y-81969500D01*
X94253214Y-82001161D01*
X94018895Y-82063947D01*
X93794794Y-82156773D01*
X93794785Y-82156777D01*
X93584706Y-82278067D01*
X93392263Y-82425733D01*
X93392256Y-82425739D01*
X93220739Y-82597256D01*
X93220733Y-82597263D01*
X93073067Y-82789706D01*
X92951777Y-82999785D01*
X92951773Y-82999794D01*
X92858947Y-83223895D01*
X92796161Y-83458214D01*
X92764500Y-83698711D01*
X91311856Y-83698711D01*
X91323290Y-83480547D01*
X91324647Y-83467641D01*
X91326141Y-83458211D01*
X91376806Y-83138318D01*
X91379496Y-83125661D01*
X91465799Y-82803571D01*
X91469801Y-82791256D01*
X91589298Y-82479954D01*
X91594561Y-82468133D01*
X91745951Y-82171014D01*
X91752417Y-82159816D01*
X91934029Y-81880158D01*
X91941631Y-81869695D01*
X92151483Y-81610548D01*
X92160150Y-81600923D01*
X92395923Y-81365150D01*
X92405548Y-81356483D01*
X92664695Y-81146631D01*
X92675158Y-81139029D01*
X92954816Y-80957417D01*
X92966014Y-80950951D01*
X93263133Y-80799561D01*
X93274954Y-80794298D01*
X93586256Y-80674801D01*
X93598571Y-80670799D01*
X93920661Y-80584496D01*
X93933318Y-80581806D01*
X94262643Y-80529646D01*
X94275547Y-80528290D01*
X94611756Y-80510669D01*
X94618246Y-80510500D01*
X94680892Y-80510500D01*
X139634108Y-80510500D01*
X139696754Y-80510500D01*
X139703243Y-80510669D01*
G37*
%TD.AperFunction*%
%TD*%
M02*
