%TF.GenerationSoftware,KiCad,Pcbnew,9.0.4*%
%TF.CreationDate,2025-08-21T19:51:14+03:00*%
%TF.ProjectId,homepost,686f6d65-706f-4737-942e-6b696361645f,rev?*%
%TF.SameCoordinates,Original*%
%TF.FileFunction,Soldermask,Top*%
%TF.FilePolarity,Negative*%
%FSLAX46Y46*%
G04 Gerber Fmt 4.6, Leading zero omitted, Abs format (unit mm)*
G04 Created by KiCad (PCBNEW 9.0.4) date 2025-08-21 19:51:14*
%MOMM*%
%LPD*%
G01*
G04 APERTURE LIST*
G04 Aperture macros list*
%AMRoundRect*
0 Rectangle with rounded corners*
0 $1 Rounding radius*
0 $2 $3 $4 $5 $6 $7 $8 $9 X,Y pos of 4 corners*
0 Add a 4 corners polygon primitive as box body*
4,1,4,$2,$3,$4,$5,$6,$7,$8,$9,$2,$3,0*
0 Add four circle primitives for the rounded corners*
1,1,$1+$1,$2,$3*
1,1,$1+$1,$4,$5*
1,1,$1+$1,$6,$7*
1,1,$1+$1,$8,$9*
0 Add four rect primitives between the rounded corners*
20,1,$1+$1,$2,$3,$4,$5,0*
20,1,$1+$1,$4,$5,$6,$7,0*
20,1,$1+$1,$6,$7,$8,$9,0*
20,1,$1+$1,$8,$9,$2,$3,0*%
G04 Aperture macros list end*
%ADD10C,1.700000*%
%ADD11R,1.700000X1.700000*%
%ADD12C,3.200000*%
%ADD13RoundRect,0.140000X-0.170000X0.140000X-0.170000X-0.140000X0.170000X-0.140000X0.170000X0.140000X0*%
%ADD14RoundRect,0.135000X-0.185000X0.135000X-0.185000X-0.135000X0.185000X-0.135000X0.185000X0.135000X0*%
%ADD15C,1.400000*%
%ADD16RoundRect,0.135000X0.185000X-0.135000X0.185000X0.135000X-0.185000X0.135000X-0.185000X-0.135000X0*%
G04 APERTURE END LIST*
D10*
%TO.C,J4*%
X125095000Y-85852000D03*
X125095000Y-88392000D03*
X125095000Y-90932000D03*
X125095000Y-93472000D03*
X125095000Y-96012000D03*
X125095000Y-98552000D03*
X125095000Y-101092000D03*
X125095000Y-103632000D03*
X125095000Y-106172000D03*
X125095000Y-108712000D03*
X125095000Y-111252000D03*
X125095000Y-113792000D03*
X125095000Y-116332000D03*
X125095000Y-118872000D03*
D11*
X125095000Y-121412000D03*
%TD*%
D10*
%TO.C,J3*%
X100330000Y-121460000D03*
X100330000Y-118920000D03*
X100330000Y-116380000D03*
X100330000Y-113840000D03*
X100330000Y-111300000D03*
X100330000Y-108760000D03*
X100330000Y-106220000D03*
X100330000Y-103680000D03*
X100330000Y-101140000D03*
X100330000Y-98600000D03*
X100330000Y-96060000D03*
X100330000Y-93520000D03*
X100330000Y-90980000D03*
X100330000Y-88440000D03*
D11*
X100330000Y-85900000D03*
%TD*%
D12*
%TO.C,REF\u002A\u002A*%
X139700000Y-131445000D03*
%TD*%
D13*
%TO.C,C4*%
X108585000Y-126040000D03*
X108585000Y-127000000D03*
%TD*%
%TO.C,C1*%
X116205000Y-126040000D03*
X116205000Y-127000000D03*
%TD*%
D14*
%TO.C,R4*%
X129540000Y-85090000D03*
X129540000Y-86110000D03*
%TD*%
D12*
%TO.C,REF\u002A\u002A*%
X139700000Y-83820000D03*
%TD*%
%TO.C,REF\u002A\u002A*%
X94615000Y-131445000D03*
%TD*%
D15*
%TO.C,R1*%
X95885000Y-106680000D03*
X95885000Y-101600000D03*
%TD*%
D11*
%TO.C,JP1*%
X132715000Y-130175000D03*
D10*
X130175000Y-130175000D03*
%TD*%
D11*
%TO.C,J1*%
X132715000Y-114275000D03*
D10*
X135255000Y-114275000D03*
X137795000Y-114275000D03*
X140335000Y-114275000D03*
%TD*%
D15*
%TO.C,R2*%
X95885000Y-97790000D03*
X95885000Y-92710000D03*
%TD*%
D11*
%TO.C,J5*%
X135255000Y-126365000D03*
D10*
X132715000Y-126365000D03*
X130175000Y-126365000D03*
%TD*%
D16*
%TO.C,R3*%
X128905000Y-102745000D03*
X128905000Y-101725000D03*
%TD*%
D13*
%TO.C,C3*%
X111125000Y-126040000D03*
X111125000Y-127000000D03*
%TD*%
%TO.C,C2*%
X113665000Y-126040000D03*
X113665000Y-127000000D03*
%TD*%
D12*
%TO.C,REF\u002A\u002A*%
X94615000Y-83820000D03*
%TD*%
D11*
%TO.C,J2*%
X132725000Y-92050000D03*
D10*
X135265000Y-92050000D03*
X137805000Y-92050000D03*
X140345000Y-92050000D03*
%TD*%
M02*
